<svg width="24" height="24" viewBox="0 0 24 24" fill="none" xmlns="http://www.w3.org/2000/svg">
    <path d="M13.2882 12.2135L20.0829 5.41877C20.4259 5.07579 20.4259 4.51034 20.0829 4.16736L20.0458 4.13028C19.7029 3.7873 19.1374 3.7873 18.7944 4.13028L11.9997 10.9343L5.20502 4.13028C4.86204 3.7873 4.29659 3.7873 3.95361 4.13028L3.91653 4.16736C3.56428 4.51034 3.56428 5.07579 3.91653 5.41877L10.7112 12.2135L3.91653 19.0082C3.57355 19.3512 3.57355 19.9166 3.91653 20.2596L3.95361 20.2967C4.29659 20.6396 4.86204 20.6396 5.20502 20.2967L11.9997 13.502L18.7944 20.2967C19.1374 20.6396 19.7029 20.6396 20.0458 20.2967L20.0829 20.2596C20.4259 19.9166 20.4259 19.3512 20.0829 19.0082L13.2882 12.2135Z" fill="#363F4D"/>
</svg>
