<svg width="18" height="18" viewBox="0 0 18 18" fill="none" xmlns="http://www.w3.org/2000/svg">
    <path d="M10.7828 6.44227C11.0584 6.1865 11.0584 5.7389 10.7828 5.48313C10.5072 5.22735 10.0249 5.22735 9.74928 5.48313L4.99522 9.76732C4.71784 10.0095 4.4968 10.3017 4.34571 10.6261C4.19461 10.9506 4.11667 11.3002 4.11667 11.6536C4.11667 12.0071 4.19461 12.3567 4.34571 12.6811C4.4968 13.0055 4.71784 13.2978 4.99522 13.54C6.16651 14.5631 8.09569 14.5631 9.26699 13.54L16.7081 6.88988C18.4306 5.2913 18.4306 2.79751 16.7081 1.19893C14.9856 -0.399645 12.0919 -0.399645 10.3694 1.19893L1.75694 8.80817C-0.585646 10.9183 -0.585646 14.3073 1.75694 16.4174C4.09952 18.5275 7.889 18.5275 10.2316 16.4174L14.9856 12.1332C15.2612 11.8774 15.2612 11.4298 14.9856 11.1741C14.71 10.9183 14.2278 10.9183 13.9522 11.1741L9.19809 15.4583C7.4756 17.0568 4.58182 17.0568 2.85933 15.4583C1.13684 13.8597 1.13684 11.3659 2.85933 9.76732L11.334 2.15808C12.5053 1.13499 14.4345 1.13499 15.6057 2.15808C16.777 3.18117 16.777 4.90764 15.6057 5.93073L8.16459 12.5808C7.6134 13.0924 6.6488 13.0924 6.02871 12.5808C5.47751 12.0693 5.47751 11.238 6.02871 10.6625L10.7828 6.44227Z" fill="#666666"/>
</svg>