<svg width="34" height="34" viewBox="0 0 34 34" fill="none" xmlns="http://www.w3.org/2000/svg">
    <path fill-rule="evenodd" clip-rule="evenodd" d="M5.52907 2.5498H28.3308C29.9685 2.5498 31.31 3.88496 31.31 5.5206V28.2601C31.31 29.8931 29.9711 31.2309 28.3308 31.2309H5.52907C3.89139 31.2309 2.5498 29.8957 2.5498 28.2601V5.5206C2.5498 3.88496 3.89139 2.5498 5.52907 2.5498Z" fill="#E60012"/>
    <path fill-rule="evenodd" clip-rule="evenodd" d="M17.9786 27.5887C15.0701 27.8291 12.7695 27.0348 10.7074 25.4724L9.6933 24.5448C7.20665 21.851 6.92366 19.9619 6.92366 15.9329C6.92366 13.469 7.03634 10.6628 6.89746 8.24072C8.22333 8.34785 8.9308 8.61175 9.75095 9.27802C10.3248 9.7431 10.9484 10.5191 11.2183 11.5982C11.8157 13.9863 10.8148 19.6562 11.7686 22.3918C12.0751 23.2723 12.6647 24.3149 13.1285 24.8139C15.1802 27.0296 15.7016 26.7892 17.9786 27.5887Z" fill="white"/>
    <path fill-rule="evenodd" clip-rule="evenodd" d="M22.0079 23.1051C20.5458 23.5754 18.5518 23.0163 17.5089 22.2925C16.3455 21.4851 15.5253 20.5262 15.0301 19.1362C14.3567 17.2497 14.8362 10.7595 14.7 8.24854C15.5018 8.2825 16.3036 8.45495 16.9141 8.82075C17.2626 9.02977 17.5037 9.18132 17.7185 9.42431C18.0696 9.82146 17.9648 9.5654 18.3736 10.1768C19.351 11.6374 19.1466 13.0509 19.1466 14.9661C19.1466 16.2882 18.9972 19.2277 19.2855 20.3486C19.5003 21.1847 20.0034 21.9267 20.6454 22.4205C21.0751 22.7524 21.5415 22.8856 22.0079 23.1051Z" fill="white"/>
    <path fill-rule="evenodd" clip-rule="evenodd" d="M22.5244 17.4692C22.451 15.9773 22.3593 12.335 22.8021 11.073C23.1323 10.1298 23.7009 9.6046 24.2852 9.12383C24.9245 8.60127 25.8678 8.31386 26.9422 8.24854C26.8164 10.2578 27.233 12.9621 26.5937 14.7649C26.1377 16.0609 24.4241 17.66 22.5244 17.4692Z" fill="white"/>
</svg>
