<svg width="24" height="23" viewBox="0 0 24 23" fill="none" xmlns="http://www.w3.org/2000/svg">
    <path d="M23.3764 8.79657C23.2791 8.50656 23.0288 8.29464 22.7264 8.24757L15.8339 7.18423L12.7542 0.591062C12.6207 0.304792 12.3335 0.121364 12.0168 0.120117H12.0152C11.7004 0.120117 11.4132 0.302298 11.2778 0.58732L8.16683 7.17428L1.25392 8.2091C0.955238 8.25991 0.709549 8.47183 0.61566 8.7606C0.521164 9.04751 0.595226 9.36415 0.805899 9.58103L5.81396 14.7329L4.61925 21.9915C4.56844 22.2995 4.69795 22.61 4.95326 22.7909C5.20794 22.9706 5.54409 22.9904 5.81738 22.8392L11.9827 19.4485L18.1346 22.8603C18.2579 22.9297 18.3943 22.9632 18.5303 22.9632C18.6951 22.9632 18.859 22.9148 18.9985 22.8145C19.2537 22.6348 19.3855 22.3249 19.3355 22.0163L18.1647 14.7539L23.1855 9.62443C23.3987 9.4063 23.4725 9.08594 23.3764 8.79657ZM16.711 13.9081C16.531 14.0921 16.4474 14.3524 16.4892 14.6077L17.4583 20.6184L12.3805 17.8027C12.1358 17.6657 11.8374 17.6657 11.592 17.8008L6.50277 20.601L7.49205 14.5928C7.53388 14.3375 7.4524 14.0779 7.27207 13.8914L3.05685 9.55628L8.82369 8.72593C8.881 8.71602 8.93584 8.6999 8.9879 8.67943C9.18898 8.61065 9.36279 8.46381 9.46102 8.2562L12.0118 2.85525L14.541 8.26982C14.6569 8.51644 14.8871 8.68935 15.156 8.73086L20.9095 9.61822L16.711 13.9081Z" fill="#999999"/>
</svg>
