<svg width="24" height="24" viewBox="0 0 24 24" fill="none" xmlns="http://www.w3.org/2000/svg">
    <path fill-rule="evenodd" clip-rule="evenodd" d="M22.7273 8.24659C23.0298 8.29366 23.2801 8.50558 23.3774 8.7956C23.4734 9.08497 23.3997 9.40532 23.1865 9.62345L18.1657 14.7529L19.3365 22.0153C19.3864 22.3239 19.2547 22.6338 18.9994 22.8135C18.86 22.9138 18.6961 22.9622 18.5313 22.9622C18.3952 22.9622 18.2589 22.9287 18.1356 22.8593L11.9836 19.4475L5.81836 22.8383C5.54507 22.9894 5.20891 22.9696 4.95424 22.7899C4.69892 22.609 4.56941 22.2985 4.62023 21.9906L5.81494 14.7319L0.806876 9.58006C0.596203 9.36318 0.522141 9.04653 0.616637 8.75962C0.710525 8.47086 0.956215 8.25893 1.25489 8.20812L1.60895 8.15512L1.50088 7.99903H2.65172L8.1678 7.1733L11.2788 0.586344C11.4142 0.301321 11.7014 0.119141 12.0162 0.119141H12.0178C12.3345 0.120388 12.6216 0.303816 12.7552 0.590086L15.8349 7.18325L22.7273 8.24659Z" fill="#FF9C09"/>
</svg>
