<svg width="28" height="28" viewBox="0 0 28 28" fill="none" xmlns="http://www.w3.org/2000/svg">
    <path d="M26.0839 11.2174H18.3835C21.366 0.542497 16.2686 0 16.2686 0C14.1898 0 14.6236 1.62749 14.4609 1.90749C14.4609 7.15746 8.73079 11.2174 8.73079 11.2174V26.0223C8.73079 27.4748 10.8457 27.9998 11.6049 27.9998H23.1737C24.2582 27.9998 25.144 25.2348 25.144 25.2348C28 15.8024 28 12.9849 28 12.9849C28.0006 12.7444 27.95 12.5064 27.8514 12.2857C27.7527 12.065 27.6081 11.8663 27.4266 11.7021C27.2451 11.5379 27.0306 11.4116 26.7965 11.3313C26.5624 11.2509 25.3918 11.2006 25.144 11.2174H26.0839ZM5.58554 11.2174H0.958037C0.833087 11.2151 0.708912 11.2369 0.592776 11.2816C0.47664 11.3263 0.370875 11.393 0.281668 11.4777C0.192461 11.5624 0.121603 11.6635 0.0732393 11.7751C0.0248755 11.8867 -2.30951e-05 12.0064 1.60742e-08 12.1274L0.958037 27.0548C0.955582 27.1796 0.979153 27.3035 1.02734 27.4193C1.07552 27.535 1.14733 27.6401 1.23847 27.7283C1.3296 27.8166 1.43819 27.8861 1.55772 27.9327C1.67726 27.9794 1.80529 28.0022 1.93415 27.9998H5.92899C6.76049 27.9998 6.76049 27.3698 6.76049 27.3698V12.3549C6.76551 12.2042 6.73856 12.0541 6.68129 11.9139C6.62402 11.7737 6.53766 11.6464 6.42754 11.5398C6.31741 11.4332 6.18587 11.3495 6.04105 11.2941C5.89623 11.2387 5.74119 11.2126 5.58554 11.2174Z" fill="#C9C9C9"/>
</svg>
