<svg width="23" height="23" viewBox="0 0 23 23" fill="none" xmlns="http://www.w3.org/2000/svg">
    <path d="M21.1024 9.21432H14.9787C17.3505 0.445622 13.2968 0 13.2968 0C11.6437 0 11.9887 1.33687 11.8593 1.56687C11.8593 5.87934 7.30246 9.21432 7.30246 9.21432V21.3755C7.30246 22.5686 8.98432 22.9999 9.58807 22.9999H18.788C19.6505 22.9999 20.3549 20.7286 20.3549 20.7286C22.6261 12.9805 22.6261 10.6662 22.6261 10.6662C22.6266 10.4686 22.5864 10.2731 22.5079 10.0918C22.4295 9.9105 22.3145 9.74731 22.1702 9.61242C22.0258 9.47754 21.8552 9.37385 21.6691 9.30782C21.4829 9.2418 20.5519 9.20049 20.3549 9.21432H21.1024ZM4.80122 9.21432H1.12125C1.02188 9.21241 0.923131 9.23033 0.830775 9.26704C0.738419 9.30375 0.65431 9.3585 0.583369 9.42811C0.512428 9.49771 0.456079 9.58076 0.417618 9.6724C0.379157 9.76404 0.359357 9.86243 0.359375 9.96181L1.12125 22.2236C1.11929 22.3261 1.13804 22.4279 1.17636 22.523C1.21467 22.618 1.27178 22.7044 1.34425 22.7768C1.41673 22.8493 1.50308 22.9064 1.59814 22.9447C1.6932 22.9831 1.79502 23.0018 1.89749 22.9999H5.07435C5.73559 22.9999 5.73559 22.4824 5.73559 22.4824V10.1487C5.73959 10.0249 5.71815 9.90162 5.67261 9.78644C5.62707 9.67127 5.55839 9.56667 5.47081 9.4791C5.38324 9.39152 5.27864 9.32284 5.16347 9.2773C5.04829 9.23176 4.92501 9.21032 4.80122 9.21432Z" fill="#E0473E"/>
</svg>
