<svg width="23" height="23" viewBox="0 0 23 23" fill="none" xmlns="http://www.w3.org/2000/svg">
    <path d="M14.3512 9.0446L14.1295 9.86432H14.9787H20.3549H20.6275C20.7319 9.86727 20.8545 9.87259 20.9771 9.87996C21.1112 9.88801 21.2394 9.89814 21.3411 9.90944C21.4304 9.91936 21.4664 9.92693 21.4681 9.92641C21.5637 9.96273 21.6515 10.0174 21.7263 10.0873L22.1702 9.61242L21.7263 10.0873C21.8054 10.1612 21.8684 10.2506 21.9114 10.3499C21.9543 10.4493 21.9764 10.5564 21.9761 10.6646L21.9758 10.6749C21.9755 10.6877 21.9746 10.7105 21.9727 10.7441C21.9689 10.8113 21.9609 10.9215 21.9442 11.081C21.9107 11.4001 21.8423 11.9149 21.7029 12.6746C21.4241 14.1936 20.8627 16.685 19.7329 20.5397L19.7282 20.5545C19.7236 20.5686 19.7165 20.5903 19.707 20.6185C19.688 20.675 19.6594 20.7571 19.6224 20.8561C19.5478 21.0558 19.4418 21.3169 19.3135 21.5735C19.1821 21.8363 19.0425 22.0635 18.9087 22.2156C18.8268 22.3087 18.7771 22.3404 18.7601 22.3499H9.58807C9.39013 22.3499 8.92129 22.267 8.51788 22.058C8.10838 21.8458 7.95246 21.6118 7.95246 21.3755V9.53145C8.08051 9.42791 8.24935 9.28686 8.44649 9.11149C8.89172 8.71542 9.48569 8.14033 10.0811 7.42286C11.2412 6.0249 12.4724 4.00686 12.5085 1.6719C12.5268 1.59782 12.5332 1.53661 12.5363 1.50684C12.5365 1.505 12.5367 1.50327 12.5368 1.50168C12.5423 1.44999 12.5468 1.382 12.5505 1.32745C12.5519 1.30686 12.5531 1.28819 12.5542 1.27303C12.5651 1.12694 12.5812 1.01606 12.615 0.926074C12.644 0.84912 12.6811 0.799656 12.7425 0.760508C12.8078 0.718872 12.9514 0.657211 13.2444 0.650583C13.2571 0.653399 13.2736 0.65738 13.2934 0.662852C13.3615 0.68163 13.467 0.717505 13.5927 0.783027C13.8397 0.911799 14.1777 1.16137 14.4683 1.65075C15.0535 2.63636 15.5185 4.72913 14.3512 9.0446ZM4.80122 9.86432H4.81172L4.8222 9.86398C4.85714 9.86285 4.89193 9.8689 4.92444 9.88176C4.95695 9.89461 4.98647 9.91399 5.01119 9.93871C5.03592 9.96344 5.0553 9.99296 5.06815 10.0255L5.67261 9.78644L5.06815 10.0255C5.08101 10.058 5.08706 10.0928 5.08593 10.1277L5.08559 10.1382V10.1487V22.3498C5.08199 22.3498 5.07824 22.3499 5.07435 22.3499H1.89749V22.3497L1.8851 22.35C1.87007 22.3503 1.85512 22.3475 1.84115 22.3419C1.82719 22.3363 1.81451 22.3279 1.80387 22.3172C1.79323 22.3066 1.78485 22.2939 1.77922 22.28L1.17676 22.5228L1.77922 22.2799C1.77359 22.266 1.77084 22.251 1.77113 22.236L1.77163 22.2096L1.76999 22.1833L1.00996 9.95103C1.01098 9.94173 1.01334 9.9326 1.01697 9.92395L0.417618 9.6724L1.01697 9.92394C1.02199 9.91199 1.02934 9.90116 1.03859 9.89208C1.04784 9.883 1.05882 9.87586 1.07086 9.87107C1.0829 9.86629 1.09578 9.86395 1.10875 9.8642L1.10874 9.86432H1.12125H4.80122Z" stroke="#E0473E" stroke-width="1.3"/>
</svg>
