<svg width="22" height="14" viewBox="0 0 22 14" fill="none" xmlns="http://www.w3.org/2000/svg">
    <path d="M11 0C15.6154 0 19.6154 2.43056 21.7692 6.02778C22.0769 6.61111 22.0769 7.38889 21.7692 7.97222C19.6154 11.5694 15.6154 14 11 14C6.38461 14 2.38461 11.5694 0.230768 7.97222C-0.0769234 7.38889 -0.0769234 6.61111 0.230768 6.02778C2.28205 2.43056 6.38461 0 11 0ZM11 10.7917C13.2564 10.7917 15.1026 9.04167 15.1026 6.90278C15.1026 4.76389 13.2564 3.01389 11 3.01389C8.74359 3.01389 6.89743 4.76389 6.89743 6.90278C6.89743 9.04167 8.74359 10.7917 11 10.7917Z" fill="#999999"/>
</svg>
