<svg width="20" height="10" viewBox="0 0 20 10" fill="none" xmlns="http://www.w3.org/2000/svg">
<path d="M19.5038 1.61818C19.6011 1.46747 19.6407 1.28677 19.6154 1.10921C19.5902 0.931656 19.5017 0.769163 19.3663 0.65155C19.057 0.40955 18.6431 0.478301 18.4025 0.789051C18.3681 0.823426 14.547 5.34855 10.0026 5.34855C5.5957 5.34855 1.6027 0.789051 1.56833 0.754676C1.44768 0.620897 1.27992 0.539017 1.10023 0.5262C0.920543 0.513384 0.742867 0.570625 0.604452 0.685926C0.471092 0.807414 0.38957 0.975544 0.376772 1.15549C0.363973 1.33544 0.420879 1.51341 0.535702 1.65255C0.603077 1.75705 1.42945 2.6893 2.73845 3.72468L0.982577 5.55618C0.919571 5.62096 0.870331 5.69783 0.837823 5.78216C0.805315 5.86648 0.790212 5.95651 0.793424 6.04683C0.796636 6.13714 0.818096 6.22587 0.856511 6.30767C0.894927 6.38947 0.949503 6.46265 1.01695 6.5228C1.0857 6.6603 1.25758 6.73042 1.42945 6.73042C1.51947 6.72972 1.60844 6.71099 1.69109 6.67533C1.77375 6.63967 1.84842 6.5878 1.9107 6.5228L3.80408 4.5538C4.77203 5.23041 5.82525 5.77598 6.93633 6.1763L6.21445 8.6293C6.18816 8.71768 6.17983 8.81043 6.18998 8.90208C6.20012 8.99373 6.22852 9.08242 6.27351 9.16291C6.3185 9.2434 6.37916 9.31407 6.45191 9.37072C6.52466 9.42738 6.60802 9.46889 6.69708 9.4928H6.90333C7.0552 9.49405 7.20292 9.44331 7.32198 9.34902C7.44104 9.25472 7.52426 9.12254 7.55783 8.97442L8.2797 6.5228C8.83108 6.62592 9.41545 6.69605 10.0012 6.69605C10.587 6.69605 11.1713 6.6273 11.7227 6.5228L12.446 8.94005C12.5147 9.2508 12.8241 9.45842 13.1005 9.45842C13.1692 9.45842 13.238 9.45843 13.2723 9.42405C13.3613 9.39998 13.4445 9.35837 13.5172 9.30167C13.5898 9.24496 13.6504 9.17432 13.6954 9.09387C13.7403 9.01343 13.7688 8.92481 13.779 8.83323C13.7892 8.74164 13.7811 8.64893 13.755 8.56055L13.0317 6.1433C14.1431 5.74309 15.1964 5.19702 16.164 4.51943L18.023 6.45405C18.1605 6.59155 18.3323 6.66167 18.5056 6.66167C18.5956 6.66097 18.6846 6.64224 18.7672 6.60658C18.8499 6.57092 18.9246 6.51905 18.9868 6.45405C19.1156 6.32815 19.1909 6.15756 19.1973 5.97761C19.2037 5.79766 19.1407 5.62215 19.0212 5.48742L17.2653 3.6573C18.6775 2.62055 19.5038 1.61818 19.5038 1.61818Z" fill="#999999"/>
</svg>
