<svg width="48" height="56" viewBox="0 0 48 56" fill="none" xmlns="http://www.w3.org/2000/svg">
    <path d="M45.9574 12.3174L36.3647 2.63683C35.5438 1.79928 34.5664 1.1349 33.4895 0.682262C32.4126 0.22962 31.2575 -0.00227997 30.0912 1.68962e-05H5.47112C4.02009 1.68962e-05 2.62849 0.582827 1.60246 1.62024C0.576421 2.65764 0 4.06467 0 5.53179V50.4682C0 51.9353 0.576421 53.3424 1.60246 54.3798C2.62849 55.4172 4.02009 56 5.47112 56H42.5289C43.9799 56 45.3715 55.4172 46.3975 54.3798C47.4236 53.3424 48 51.9353 48 50.4682V17.2776C47.9862 15.4179 47.2531 13.6375 45.9574 12.3174ZM44.3526 50.4682C44.3526 50.9573 44.1604 51.4263 43.8184 51.7721C43.4764 52.1179 43.0125 52.3121 42.5289 52.3121H5.47112C4.98745 52.3121 4.52358 52.1179 4.18157 51.7721C3.83956 51.4263 3.64742 50.9573 3.64742 50.4682V5.53179C3.64742 5.04275 3.83956 4.57374 4.18157 4.22794C4.52358 3.88213 4.98745 3.68787 5.47112 3.68787H29.5988C31.2935 3.67419 32.9252 4.33675 34.1398 5.53179L42.4742 13.9585C43.6595 15.1844 44.3154 16.8356 44.2979 18.5499L44.3526 50.4682Z" fill="#C9C9C9"/>
    <path d="M37.6598 32.8585H10.3042C9.8205 32.8585 9.35663 33.0527 9.01462 33.3985C8.67261 33.7443 8.48047 34.2133 8.48047 34.7024C8.48047 35.1914 8.67261 35.6604 9.01462 36.0062C9.35663 36.352 9.8205 36.5463 10.3042 36.5463H37.6598C38.1435 36.5463 38.6074 36.352 38.9494 36.0062C39.2914 35.6604 39.4835 35.1914 39.4835 34.7024C39.4835 34.2133 39.2914 33.7443 38.9494 33.3985C38.6074 33.0527 38.1435 32.8585 37.6598 32.8585ZM37.6598 42.0781H10.3042C9.8205 42.0781 9.35663 42.2724 9.01462 42.6182C8.67261 42.964 8.48047 43.433 8.48047 43.922C8.48047 44.411 8.67261 44.8801 9.01462 45.2259C9.35663 45.5717 9.8205 45.7659 10.3042 45.7659H37.6598C38.1435 45.7659 38.6074 45.5717 38.9494 45.2259C39.2914 44.8801 39.4835 44.411 39.4835 43.922C39.4835 43.433 39.2914 42.964 38.9494 42.6182C38.6074 42.2724 38.1435 42.0781 37.6598 42.0781ZM23.7267 27.1976H10.3042C9.8205 27.1976 9.35663 27.0033 9.01462 26.6575C8.67261 26.3117 8.48047 25.8427 8.48047 25.3537C8.48047 24.8647 8.67261 24.3956 9.01462 24.0498C9.35663 23.704 9.8205 23.5098 10.3042 23.5098H23.7084C24.1921 23.5098 24.656 23.704 24.998 24.0498C25.34 24.3956 25.5321 24.8647 25.5321 25.3537C25.5321 25.8427 25.34 26.3117 24.998 26.6575C24.656 27.0033 24.1921 27.1976 23.7084 27.1976H23.7267Z" fill="#C9C9C9"/>
</svg>
