<svg width="24" height="24" viewBox="0 0 24 24" fill="none" xmlns="http://www.w3.org/2000/svg">
    <path d="M11.6667 23.8333C5.22317 23.8333 0 18.6102 0 12.1667C0 5.72317 5.22317 0.5 11.6667 0.5C18.1102 0.5 23.3333 5.72317 23.3333 12.1667C23.3333 18.6102 18.1102 23.8333 11.6667 23.8333ZM10.059 7.98417C9.98879 7.93732 9.90718 7.9104 9.82288 7.90626C9.73857 7.90212 9.65472 7.92093 9.58025 7.96067C9.50579 8.00042 9.4435 8.05962 9.40002 8.13196C9.35654 8.20431 9.33349 8.28709 9.33333 8.3715V15.9618C9.33349 16.0462 9.35654 16.129 9.40002 16.2014C9.4435 16.2737 9.50579 16.3329 9.58025 16.3727C9.65472 16.4124 9.73857 16.4312 9.82288 16.4271C9.90718 16.4229 9.98879 16.396 10.059 16.3492L15.7512 12.5552C15.8152 12.5126 15.8677 12.4548 15.904 12.387C15.9403 12.3193 15.9593 12.2436 15.9593 12.1667C15.9593 12.0898 15.9403 12.0141 15.904 11.9463C15.8677 11.8785 15.8152 11.8208 15.7512 11.7782L10.0578 7.98417H10.059Z" fill="#DD3030" fill-opacity="0.5"/>
</svg>
