<svg width="1115" height="464" viewBox="0 0 1115 464" fill="none" xmlns="http://www.w3.org/2000/svg">
    <path d="M34.088 449.592C33.668 449.046 32.8 448.178 32.1 447.562L31.4 448.178C32.1 448.822 32.954 449.732 33.346 450.306L34.088 449.592ZM33.598 457.264V451.636H30.658V452.588H32.604V457.32C32.604 458.048 32.128 458.58 31.848 458.818C32.044 458.958 32.366 459.308 32.492 459.518C32.674 459.238 33.024 458.958 35.306 457.012C35.194 456.83 35.026 456.438 34.928 456.172L33.598 457.264ZM36.454 451.006H38.568V452.462H36.454V451.006ZM36.454 448.738H38.568V450.18H36.454V448.738ZM41.466 450.18H39.534V448.738H41.466V450.18ZM41.466 452.462H39.534V451.006H41.466V452.462ZM43.328 455.458V454.506H39.562V453.33H42.46V447.884H35.502V453.33H38.54V454.506H34.76V455.458H37.938C37.07 456.816 35.642 458.118 34.284 458.748C34.494 458.93 34.802 459.28 34.956 459.532C36.272 458.79 37.644 457.446 38.54 455.976V460.064H39.562V455.962C40.444 457.306 41.718 458.65 42.838 459.392C43.006 459.14 43.328 458.79 43.552 458.594C42.39 457.936 41.046 456.69 40.164 455.458H43.328ZM55.522 450.992H51.084V448.668H55.522V450.992ZM56.53 447.772H50.104V451.902H56.53V447.772ZM49.46 454.954C49.222 454.562 48.158 453.05 47.766 452.574V452.252H49.488V451.272H47.766V448.78C48.34 448.626 48.886 448.444 49.334 448.234L48.676 447.394C47.808 447.828 46.282 448.234 44.98 448.486C45.092 448.724 45.232 449.074 45.288 449.312C45.764 449.228 46.282 449.13 46.786 449.018V451.272H44.826V452.252H46.632C46.156 453.834 45.302 455.64 44.518 456.648C44.7 456.914 44.966 457.362 45.064 457.642C45.694 456.83 46.296 455.528 46.786 454.184V460.078H47.766V453.834C48.158 454.534 48.606 455.374 48.788 455.822L49.46 454.954ZM53.912 458.734V456.802H56.712V455.864H53.912V454.044H57.02V453.092H49.838V454.044H52.89V455.864H50.174V456.802H52.89V458.734H49.222V459.7H57.328V458.734H53.912ZM60.156 450.544H69.914V452.364H70.936V449.606H68.654C69.102 449.046 69.592 448.374 70.012 447.744L68.962 447.38C68.64 448.052 68.066 448.962 67.548 449.606H65.266L65.98 449.312C65.812 448.724 65.322 447.842 64.846 447.184L63.95 447.52C64.37 448.15 64.804 449.018 65 449.606H61.934L62.466 449.326C62.228 448.794 61.654 448.01 61.136 447.422L60.268 447.828C60.716 448.36 61.22 449.074 61.472 449.606H59.162V452.364H60.156V450.544ZM71.188 455.15H65.49V454.59C66.75 454.03 68.052 453.26 68.948 452.434L68.262 451.916L68.066 451.972H61.22V452.896H66.876C66.162 453.372 65.266 453.848 64.454 454.142V455.15H58.882V456.116H64.454V458.776C64.454 458.972 64.384 459.042 64.09 459.056C63.824 459.084 62.872 459.084 61.808 459.042C61.962 459.336 62.172 459.756 62.242 460.05C63.516 460.05 64.314 460.036 64.818 459.868C65.322 459.714 65.49 459.42 65.49 458.79V456.116H71.188V455.15ZM76.55 449.396V452.448H74.17V449.396H76.55ZM74.17 456.55V453.386H76.55V456.55H74.17ZM77.53 448.458H73.19V458.608H74.17V457.502H77.53V448.458ZM85.412 450.082H83.718V447.366H82.682V450.082H78.16V451.104H82.682V458.524C82.682 458.804 82.57 458.888 82.29 458.902C81.982 458.916 80.946 458.916 79.868 458.888C80.036 459.168 80.19 459.644 80.246 459.924C81.646 459.938 82.528 459.924 83.018 459.742C83.508 459.588 83.718 459.266 83.718 458.524V451.104H85.412V450.082ZM81.674 455.556C81.212 454.716 80.232 453.288 79.49 452.224L78.636 452.672C79.378 453.75 80.316 455.234 80.764 456.088L81.674 455.556Z" fill="#666666"/>
    <path d="M276.338 449.858H285.648V451.706H286.712V448.878H281.952C281.756 448.388 281.378 447.716 281.042 447.198L280.02 447.52C280.272 447.926 280.538 448.444 280.72 448.878H275.316V451.706H276.338V449.858ZM280.09 452.098C279.656 451.608 278.76 450.978 278.018 450.572L277.388 451.23C278.144 451.678 279.026 452.364 279.432 452.84L280.09 452.098ZM276.016 453.386C276.786 453.834 277.724 454.506 278.172 455.01L278.802 454.226C278.354 453.75 277.388 453.106 276.618 452.686L276.016 453.386ZM281.518 457.46C283.366 458.16 285.228 459.126 286.348 459.98L286.978 459.182C285.844 458.342 283.884 457.376 282.022 456.704L281.518 457.46ZM281.574 455.402C281.952 454.058 282.064 452.462 282.12 450.558H281.042C280.986 452.532 280.902 454.114 280.468 455.402H275.05V456.312H280.048C279.278 457.656 277.85 458.566 275.19 459.126C275.414 459.35 275.666 459.742 275.778 460.022C278.886 459.308 280.454 458.09 281.252 456.312H287.034V455.402H281.574ZM300.53 448.36H294.468V449.34H300.53V448.36ZM292.844 447.842L292.676 447.884H289.246V460.064H290.24V448.836H292.27C291.976 449.774 291.542 450.978 291.136 451.986C292.158 453.092 292.424 454.044 292.424 454.814C292.424 455.234 292.34 455.626 292.116 455.78C292.004 455.85 291.85 455.892 291.682 455.906C291.444 455.92 291.164 455.906 290.842 455.892C291.01 456.158 291.108 456.55 291.122 456.802C291.444 456.816 291.808 456.816 292.088 456.788C292.382 456.746 292.648 456.676 292.858 456.522C293.25 456.242 293.432 455.64 293.432 454.912C293.432 454.03 293.18 453.022 292.13 451.86C292.62 450.754 293.152 449.382 293.572 448.248L292.844 447.842ZM294.846 454.212C294.468 455.682 293.838 457.18 293.068 458.174C293.306 458.272 293.726 458.566 293.908 458.72C294.664 457.642 295.364 456.032 295.798 454.422L294.846 454.212ZM301.286 452.658V451.678H293.866V452.658H296.848V458.748C296.848 458.916 296.792 458.972 296.582 458.986C296.4 458.986 295.756 459 295.028 458.972C295.168 459.28 295.308 459.728 295.35 460.036C296.33 460.036 296.974 460.008 297.366 459.826C297.772 459.658 297.884 459.336 297.884 458.748V452.658H301.286ZM298.836 454.45C299.494 455.822 300.138 457.628 300.334 458.72L301.3 458.384C301.062 457.292 300.376 455.528 299.704 454.184L298.836 454.45ZM304.142 449.228H313.9V450.348H314.908V448.346H309.644C309.448 447.996 309.168 447.562 308.916 447.212L308.048 447.52C308.202 447.772 308.384 448.066 308.552 448.346H303.162V450.348H304.142V449.228ZM311.268 451.524C310.792 452.154 310.148 452.644 309.322 453.05C308.356 452.84 307.334 452.658 306.312 452.504C306.634 452.21 306.956 451.874 307.306 451.524H311.268ZM314.796 454.436C313.69 454.058 312.248 453.68 310.638 453.316C311.394 452.84 311.996 452.252 312.416 451.524H315.118V450.67H308.062C308.328 450.348 308.608 449.998 308.818 449.69L307.894 449.396C307.628 449.802 307.306 450.236 306.942 450.67H302.924V451.524H306.2C305.682 452.084 305.164 452.602 304.688 453.022C305.794 453.19 306.858 453.372 307.88 453.568C306.536 453.946 304.884 454.156 302.882 454.254C303.05 454.478 303.204 454.814 303.274 455.094C305.864 454.912 307.922 454.576 309.49 453.918C311.268 454.31 312.794 454.73 313.928 455.15L314.796 454.436ZM315.258 456.648V455.766H309.476V454.618H308.454V455.766H302.784V456.648H307.642C306.41 457.712 304.394 458.636 302.518 459.056C302.742 459.238 303.022 459.644 303.176 459.882C305.094 459.378 307.152 458.286 308.454 456.998V460.064H309.476V456.942C310.806 458.272 312.948 459.378 314.894 459.896C315.048 459.644 315.328 459.252 315.566 459.042C313.676 458.636 311.632 457.726 310.358 456.648H315.258ZM319.01 447.31C318.464 449.354 317.568 451.37 316.504 452.686C316.686 452.952 316.952 453.512 317.022 453.736C317.372 453.302 317.694 452.812 318.016 452.266V460.05H318.996V450.278C319.36 449.396 319.682 448.5 319.948 447.576L319.01 447.31ZM320.186 449.046H321.67C321.25 451.258 320.564 453.344 319.528 454.716C319.766 454.87 320.158 455.192 320.312 455.36C320.928 454.492 321.446 453.372 321.866 452.112H323.686C323.518 453.26 323.266 454.31 322.916 455.262C322.524 454.912 322.006 454.52 321.6 454.226L321.04 454.926C321.516 455.304 322.104 455.794 322.538 456.2C321.88 457.6 321.012 458.664 320.004 459.294C320.242 459.476 320.536 459.84 320.662 460.092C322.804 458.594 324.26 455.71 324.722 451.272L324.12 451.118L323.952 451.146H322.16C322.356 450.474 322.524 449.76 322.65 449.046H325.016V448.066H320.186V449.046ZM326.57 448.906H325.632V456.676H326.57V448.906ZM327.914 447.352V458.664C327.914 458.888 327.83 458.958 327.606 458.972C327.382 458.972 326.626 458.972 325.814 458.944C325.954 459.238 326.108 459.686 326.15 459.966C327.228 459.966 327.914 459.938 328.32 459.77C328.726 459.602 328.88 459.308 328.88 458.664V447.352H327.914Z" fill="#666666"/>
    <path d="M530.922 448.136H524.09V449.116H530.922V448.136ZM521.752 447.282C521.052 448.276 519.708 449.536 518.546 450.32C518.728 450.516 519.008 450.922 519.162 451.146C520.408 450.264 521.836 448.906 522.746 447.674L521.752 447.282ZM522.326 450.264C521.36 451.846 519.848 453.456 518.406 454.478C518.616 454.688 518.98 455.136 519.134 455.346C519.652 454.94 520.184 454.436 520.716 453.89V460.106H521.752V452.742C522.326 452.056 522.858 451.342 523.292 450.628L522.326 450.264ZM531.328 451.958H523.488V452.952H528.164V458.72C528.164 458.958 528.08 459.014 527.814 459.028C527.548 459.042 526.624 459.042 525.63 459.014C525.784 459.308 525.924 459.742 525.966 460.022C527.338 460.022 528.122 460.022 528.598 459.868C529.06 459.7 529.214 459.378 529.214 458.734V452.952H531.328V451.958ZM543.914 450.516C543.368 452.056 542.36 454.072 541.59 455.332L542.444 455.794C543.242 454.506 544.18 452.574 544.852 450.978L543.914 450.516ZM536.13 455.29C535.752 454.072 534.898 452.028 534.156 450.474L533.19 450.768C533.918 452.35 534.758 454.45 535.094 455.682L536.13 455.29ZM541.226 458.314V447.478H540.19V458.314H537.824V447.464H536.788V458.314H532.896V459.336H545.132V458.314H541.226ZM553.588 454.814V452.49H557.354V454.814H553.588ZM549.15 454.814C549.192 454.296 549.206 453.778 549.206 453.316V452.49H552.552V454.814H549.15ZM552.552 449.27V451.51H549.206V449.27H552.552ZM557.354 451.51H553.588V449.27H557.354V451.51ZM558.376 448.276H548.184V453.316C548.184 455.262 548.044 457.726 546.504 459.462C546.728 459.588 547.148 459.938 547.302 460.148C548.366 458.958 548.842 457.362 549.052 455.808H552.552V459.938H553.588V455.808H557.354V458.65C557.354 458.916 557.256 459 556.976 459.014C556.724 459.014 555.772 459.028 554.792 458.986C554.932 459.266 555.1 459.714 555.142 459.994C556.458 460.008 557.27 459.994 557.746 459.826C558.194 459.644 558.376 459.336 558.376 458.664V448.276ZM563.458 453.204C563.472 452.938 563.472 452.7 563.472 452.462V450.418H570.752V453.204H563.458ZM567.392 449.438L568.036 449.242C567.868 448.696 567.504 447.856 567.182 447.212L566.174 447.478C566.454 448.094 566.762 448.892 566.93 449.438H562.408V452.462C562.408 454.562 562.226 457.46 560.532 459.518C560.784 459.63 561.246 459.966 561.414 460.148C562.786 458.496 563.262 456.186 563.416 454.184H570.752V455.094H571.802V449.438H567.392Z" fill="#666666"/>
    <path d="M774.922 448.136H768.09V449.116H774.922V448.136ZM765.752 447.282C765.052 448.276 763.708 449.536 762.546 450.32C762.728 450.516 763.008 450.922 763.162 451.146C764.408 450.264 765.836 448.906 766.746 447.674L765.752 447.282ZM766.326 450.264C765.36 451.846 763.848 453.456 762.406 454.478C762.616 454.688 762.98 455.136 763.134 455.346C763.652 454.94 764.184 454.436 764.716 453.89V460.106H765.752V452.742C766.326 452.056 766.858 451.342 767.292 450.628L766.326 450.264ZM775.328 451.958H767.488V452.952H772.164V458.72C772.164 458.958 772.08 459.014 771.814 459.028C771.548 459.042 770.624 459.042 769.63 459.014C769.784 459.308 769.924 459.742 769.966 460.022C771.338 460.022 772.122 460.022 772.598 459.868C773.06 459.7 773.214 459.378 773.214 458.734V452.952H775.328V451.958ZM787.914 450.516C787.368 452.056 786.36 454.072 785.59 455.332L786.444 455.794C787.242 454.506 788.18 452.574 788.852 450.978L787.914 450.516ZM780.13 455.29C779.752 454.072 778.898 452.028 778.156 450.474L777.19 450.768C777.918 452.35 778.758 454.45 779.094 455.682L780.13 455.29ZM785.226 458.314V447.478H784.19V458.314H781.824V447.464H780.788V458.314H776.896V459.336H789.132V458.314H785.226ZM793.794 452.602C793.22 452.154 792.072 451.552 791.19 451.202L790.63 451.958C791.54 452.364 792.646 452.994 793.22 453.47L793.794 452.602ZM791.974 459.882C792.8 458.594 793.78 456.858 794.508 455.388L793.752 454.702C792.954 456.284 791.848 458.118 791.106 459.182L791.974 459.882ZM791.386 448.192C792.31 448.612 793.444 449.284 794.004 449.76L794.606 448.892C794.018 448.444 792.87 447.814 791.946 447.436L791.386 448.192ZM803.118 459.588C802.698 458.51 801.648 456.844 800.668 455.626L799.828 456.018C800.262 456.564 800.682 457.194 801.074 457.824L796.65 458.314C797.518 457.138 798.386 455.654 799.114 454.17H803.062V453.176H799.394V450.684H802.488V449.69H799.394V447.282H798.358V449.69H795.376V450.684H798.358V453.176H794.76V454.17H797.882C797.182 455.738 796.258 457.222 795.95 457.642C795.6 458.146 795.32 458.482 795.054 458.552C795.18 458.832 795.348 459.35 795.404 459.588C795.782 459.406 796.37 459.308 801.564 458.664C801.83 459.182 802.068 459.658 802.208 460.05L803.118 459.588ZM811.658 448.892H815.522V455.346H816.544V447.968H810.664V455.346H811.658V448.892ZM810.09 457.236C809.754 456.816 808.34 455.15 807.794 454.576C807.822 454.31 807.85 454.058 807.878 453.806H809.992V452.826H807.92C807.934 452.532 807.934 452.224 807.934 451.944V450.572H809.838V449.606H807.934V447.436H806.954V449.606H804.952V450.572H806.954V451.958C806.954 452.224 806.954 452.532 806.94 452.826H804.644V453.806H806.898C806.758 455.682 806.268 457.824 804.56 459.21C804.812 459.364 805.162 459.714 805.288 459.924C806.618 458.748 807.29 457.194 807.612 455.64C808.228 456.41 809.04 457.474 809.362 458.02L810.09 457.236ZM814.99 458.944C814.626 458.944 814.514 458.86 814.514 458.482V454.94H813.87C814.038 454.184 814.094 453.442 814.094 452.756V450.082H813.114V452.742C813.114 454.898 812.68 457.516 809.18 459.308C809.362 459.448 809.698 459.854 809.824 460.064C811.938 458.958 813.03 457.474 813.576 455.962V458.58C813.576 459.518 813.94 459.77 814.85 459.77H815.956C817.104 459.77 817.272 459.224 817.384 457.054C817.132 456.998 816.782 456.844 816.53 456.648C816.474 458.58 816.404 458.944 815.97 458.944H814.99Z" fill="#666666"/>
    <path d="M1019.22 452.938H1013.52V449.34H1018.57V448.29H1007.51V449.34H1012.38V452.938H1006.8V454.002H1012.38V460.05H1013.52V454.002H1019.22V452.938ZM1027.31 450.964C1027.31 452.056 1027.67 452.336 1029.07 452.336H1031.62C1032.74 452.336 1033.06 451.93 1033.17 450.39C1032.89 450.334 1032.47 450.18 1032.25 450.012C1032.19 451.244 1032.08 451.44 1031.54 451.44H1029.16C1028.46 451.44 1028.33 451.356 1028.33 450.964V450.012C1030.05 449.606 1031.68 449.088 1032.87 448.472L1032.17 447.73C1031.24 448.262 1029.84 448.738 1028.33 449.144V447.352H1027.31V449.41C1026.61 449.578 1025.91 449.718 1025.21 449.858C1025.33 450.068 1025.47 450.404 1025.52 450.614C1026.1 450.502 1026.71 450.39 1027.31 450.264V450.964ZM1031.47 457.502V453.176H1022.73V457.586H1023.78V454.142H1030.39V457.502H1031.47ZM1023.22 452.616H1024.26V448.976C1024.75 448.528 1025.21 448.052 1025.57 447.576L1024.62 447.226C1023.68 448.43 1022.13 449.578 1020.6 450.292C1020.84 450.46 1021.22 450.838 1021.37 451.034C1021.97 450.698 1022.6 450.292 1023.22 449.83V452.616ZM1027.52 454.702H1026.44V455.892C1026.44 456.942 1026.02 458.328 1020.94 459.238C1021.18 459.448 1021.48 459.84 1021.58 460.078C1026.86 459.014 1027.52 457.32 1027.52 455.92V454.702ZM1027.38 458.02C1029.13 458.552 1031.38 459.434 1032.53 460.078L1033.12 459.266C1031.9 458.608 1029.65 457.782 1027.94 457.292L1027.38 458.02ZM1042.09 449.354C1041.9 448.766 1041.42 447.87 1041 447.212L1039.92 447.52C1040.34 448.206 1040.79 449.144 1040.96 449.718L1042.09 449.354ZM1043.93 450.768C1043.23 452.658 1042.29 454.198 1041.04 455.458C1039.73 454.142 1038.72 452.546 1037.99 450.768H1043.93ZM1047.3 450.768V449.746H1034.76V450.768H1036.91C1037.72 452.882 1038.83 454.702 1040.27 456.186C1038.75 457.474 1036.87 458.426 1034.56 459.084C1034.77 459.322 1035.08 459.798 1035.2 460.05C1037.53 459.308 1039.46 458.3 1041.03 456.928C1042.58 458.328 1044.49 459.35 1046.77 459.994C1046.94 459.7 1047.23 459.266 1047.48 459.028C1045.26 458.482 1043.37 457.488 1041.83 456.186C1043.23 454.744 1044.3 452.98 1045.1 450.768H1047.3ZM1051.36 454.758H1058.64V455.78H1051.36V454.758ZM1051.36 453.064H1058.64V454.044H1051.36V453.064ZM1055.5 456.536H1059.68V452.308H1050.34V456.536H1054.44V457.502H1048.7V458.37H1054.44V460.064H1055.5V458.37H1061.24V457.502H1055.5V456.536ZM1060.39 448.43H1055.8C1055.62 448.024 1055.34 447.492 1055.08 447.1L1054.08 447.352C1054.26 447.66 1054.47 448.066 1054.64 448.43H1049.65V449.284H1060.39V448.43ZM1057.66 450.698C1057.9 450.348 1058.14 449.942 1058.35 449.522L1057.27 449.284C1057.1 449.69 1056.81 450.25 1056.55 450.698H1053.46C1053.29 450.292 1052.98 449.732 1052.7 449.326L1051.72 449.55C1051.93 449.9 1052.17 450.334 1052.31 450.698H1048.73V451.566H1061.27V450.698H1057.66Z" fill="#666666"/>
    <path d="M12.7134 427.12C10.2334 427.12 8.23336 425.04 7.67336 419.64C9.15336 417.36 10.9134 416.52 12.5134 416.52C15.0734 416.52 16.7134 418.16 16.7134 421.68C16.7134 425.28 14.9134 427.12 12.7134 427.12ZM21.6734 404.2C19.8734 402.36 17.2334 400.84 13.6334 400.84C7.67336 400.84 2.19336 405.56 2.19336 416.6C2.19336 427.04 7.19336 431.56 12.8334 431.56C17.8734 431.56 22.1134 427.76 22.1134 421.68C22.1134 415.32 18.5934 412.36 13.6334 412.36C11.7134 412.36 9.15336 413.56 7.55336 415.52C7.79336 408.12 10.5934 405.56 13.9934 405.56C15.7134 405.56 17.5134 406.52 18.5534 407.72L21.6734 404.2ZM27.108 439.52C31.908 437.92 34.668 434.36 34.668 429.68C34.668 426.04 33.148 423.88 30.428 423.88C28.348 423.88 26.628 425.24 26.628 427.36C26.628 429.6 28.388 430.84 30.308 430.84C30.428 430.84 30.548 430.84 30.668 430.84C30.668 433.16 28.948 435.16 25.868 436.32L27.108 439.52ZM48.5559 431.56C54.5559 431.56 58.5559 426.28 58.5559 416.08C58.5559 405.88 54.5559 400.84 48.5559 400.84C42.5159 400.84 38.5159 405.84 38.5159 416.08C38.5159 426.28 42.5159 431.56 48.5559 431.56ZM48.5559 426.96C45.9959 426.96 44.0759 424.4 44.0759 416.08C44.0759 407.8 45.9959 405.4 48.5559 405.4C51.0759 405.4 52.9959 407.8 52.9959 416.08C52.9959 424.4 51.0759 426.96 48.5559 426.96ZM72.1105 431.56C78.1105 431.56 82.1105 426.28 82.1105 416.08C82.1105 405.88 78.1105 400.84 72.1105 400.84C66.0705 400.84 62.0705 405.84 62.0705 416.08C62.0705 426.28 66.0705 431.56 72.1105 431.56ZM72.1105 426.96C69.5505 426.96 67.6305 424.4 67.6305 416.08C67.6305 407.8 69.5505 405.4 72.1105 405.4C74.6305 405.4 76.5505 407.8 76.5505 416.08C76.5505 424.4 74.6305 426.96 72.1105 426.96ZM95.6652 431.56C101.665 431.56 105.665 426.28 105.665 416.08C105.665 405.88 101.665 400.84 95.6652 400.84C89.6252 400.84 85.6252 405.84 85.6252 416.08C85.6252 426.28 89.6252 431.56 95.6652 431.56ZM95.6652 426.96C93.1052 426.96 91.1852 424.4 91.1852 416.08C91.1852 407.8 93.1052 405.4 95.6652 405.4C98.1852 405.4 100.105 407.8 100.105 416.08C100.105 424.4 98.1852 426.96 95.6652 426.96Z" fill="#333333"/>
    <path d="M111.776 428.786H112.442V424.754H116.132V424.178H112.442V420.128H111.776V424.178H108.086V424.754H111.776V428.786Z" fill="#666666"/>
    <path d="M235.696 431H253.496V426.24H247.936V401.4H243.576C241.696 402.56 239.656 403.32 236.696 403.88V407.52H242.056V426.24H235.696V431ZM267.771 431.56C273.771 431.56 277.771 426.28 277.771 416.08C277.771 405.88 273.771 400.84 267.771 400.84C261.731 400.84 257.731 405.84 257.731 416.08C257.731 426.28 261.731 431.56 267.771 431.56ZM267.771 426.96C265.211 426.96 263.291 424.4 263.291 416.08C263.291 407.8 265.211 405.4 267.771 405.4C270.291 405.4 272.211 407.8 272.211 416.08C272.211 424.4 270.291 426.96 267.771 426.96ZM282.885 439.52C287.685 437.92 290.445 434.36 290.445 429.68C290.445 426.04 288.925 423.88 286.205 423.88C284.125 423.88 282.405 425.24 282.405 427.36C282.405 429.6 284.165 430.84 286.085 430.84C286.205 430.84 286.325 430.84 286.445 430.84C286.445 433.16 284.725 435.16 281.645 436.32L282.885 439.52ZM304.333 431.56C310.333 431.56 314.333 426.28 314.333 416.08C314.333 405.88 310.333 400.84 304.333 400.84C298.293 400.84 294.293 405.84 294.293 416.08C294.293 426.28 298.293 431.56 304.333 431.56ZM304.333 426.96C301.773 426.96 299.853 424.4 299.853 416.08C299.853 407.8 301.773 405.4 304.333 405.4C306.853 405.4 308.773 407.8 308.773 416.08C308.773 424.4 306.853 426.96 304.333 426.96ZM327.888 431.56C333.888 431.56 337.888 426.28 337.888 416.08C337.888 405.88 333.888 400.84 327.888 400.84C321.848 400.84 317.848 405.84 317.848 416.08C317.848 426.28 321.848 431.56 327.888 431.56ZM327.888 426.96C325.328 426.96 323.408 424.4 323.408 416.08C323.408 407.8 325.328 405.4 327.888 405.4C330.408 405.4 332.328 407.8 332.328 416.08C332.328 424.4 330.408 426.96 327.888 426.96ZM351.443 431.56C357.443 431.56 361.443 426.28 361.443 416.08C361.443 405.88 357.443 400.84 351.443 400.84C345.403 400.84 341.403 405.84 341.403 416.08C341.403 426.28 345.403 431.56 351.443 431.56ZM351.443 426.96C348.883 426.96 346.963 424.4 346.963 416.08C346.963 407.8 348.883 405.4 351.443 405.4C353.963 405.4 355.883 407.8 355.883 416.08C355.883 424.4 353.963 426.96 351.443 426.96Z" fill="#333333"/>
    <path d="M367.553 428.786H368.219V424.754H371.909V424.178H368.219V420.128H367.553V424.178H363.863V424.754H367.553V428.786Z" fill="#666666"/>
    <path d="M502.731 431H520.531V426.24H514.971V401.4H510.611C508.731 402.56 506.691 403.32 503.731 403.88V407.52H509.091V426.24H502.731V431ZM534.806 431.56C540.806 431.56 544.806 426.28 544.806 416.08C544.806 405.88 540.806 400.84 534.806 400.84C528.766 400.84 524.766 405.84 524.766 416.08C524.766 426.28 528.766 431.56 534.806 431.56ZM534.806 426.96C532.246 426.96 530.326 424.4 530.326 416.08C530.326 407.8 532.246 405.4 534.806 405.4C537.326 405.4 539.246 407.8 539.246 416.08C539.246 424.4 537.326 426.96 534.806 426.96ZM553.001 431H560.241L563.481 416.36C563.961 414.04 564.361 411.76 564.761 409.52H564.921C565.281 411.76 565.721 414.04 566.201 416.36L569.521 431H576.881L582.361 401.4H576.721L574.401 415.84C573.961 418.92 573.521 422.08 573.081 425.28H572.881C572.241 422.08 571.641 418.88 571.001 415.84L567.561 401.4H562.521L559.081 415.84C558.441 418.92 557.801 422.12 557.201 425.28H557.041C556.601 422.12 556.121 418.96 555.681 415.84L553.321 401.4H547.281L553.001 431Z" fill="#333333"/>
    <path d="M587.518 428.786H588.184V424.754H591.874V424.178H588.184V420.128H587.518V424.178H583.828V424.754H587.518V428.786Z" fill="#666666"/>
    <path d="M752.072 431H771.912V426.04H765.472C764.112 426.04 762.152 426.2 760.672 426.36C766.072 421.08 770.512 415.32 770.512 409.96C770.512 404.44 766.792 400.84 761.192 400.84C757.152 400.84 754.512 402.44 751.792 405.32L754.992 408.52C756.472 406.88 758.272 405.48 760.432 405.48C763.232 405.48 764.872 407.28 764.872 410.28C764.872 414.84 760.112 420.4 752.072 427.6V431ZM785.706 431.56C791.706 431.56 795.706 426.28 795.706 416.08C795.706 405.88 791.706 400.84 785.706 400.84C779.666 400.84 775.666 405.84 775.666 416.08C775.666 426.28 779.666 431.56 785.706 431.56ZM785.706 426.96C783.146 426.96 781.226 424.4 781.226 416.08C781.226 407.8 783.146 405.4 785.706 405.4C788.226 405.4 790.146 407.8 790.146 416.08C790.146 424.4 788.226 426.96 785.706 426.96ZM809.261 431.56C815.261 431.56 819.261 426.28 819.261 416.08C819.261 405.88 815.261 400.84 809.261 400.84C803.221 400.84 799.221 405.84 799.221 416.08C799.221 426.28 803.221 431.56 809.261 431.56ZM809.261 426.96C806.701 426.96 804.781 424.4 804.781 416.08C804.781 407.8 806.701 405.4 809.261 405.4C811.781 405.4 813.701 407.8 813.701 416.08C813.701 424.4 811.781 426.96 809.261 426.96ZM825.372 428.84H826.29V424.844H829.962V423.998H826.29V420.002H825.372V423.998H821.682V424.844H825.372V428.84Z" fill="#333333"/>
    <path d="M956.366 431H974.166V426.24H968.606V401.4H964.246C962.366 402.56 960.326 403.32 957.366 403.88V407.52H962.726V426.24H956.366V431ZM980.001 439.52C984.801 437.92 987.561 434.36 987.561 429.68C987.561 426.04 986.041 423.88 983.321 423.88C981.241 423.88 979.521 425.24 979.521 427.36C979.521 429.6 981.281 430.84 983.201 430.84C983.321 430.84 983.441 430.84 983.561 430.84C983.561 433.16 981.841 435.16 978.761 436.32L980.001 439.52ZM1001.45 431.56C1007.45 431.56 1011.45 426.28 1011.45 416.08C1011.45 405.88 1007.45 400.84 1001.45 400.84C995.408 400.84 991.408 405.84 991.408 416.08C991.408 426.28 995.408 431.56 1001.45 431.56ZM1001.45 426.96C998.888 426.96 996.968 424.4 996.968 416.08C996.968 407.8 998.888 405.4 1001.45 405.4C1003.97 405.4 1005.89 407.8 1005.89 416.08C1005.89 424.4 1003.97 426.96 1001.45 426.96ZM1025 431.56C1031 431.56 1035 426.28 1035 416.08C1035 405.88 1031 400.84 1025 400.84C1018.96 400.84 1014.96 405.84 1014.96 416.08C1014.96 426.28 1018.96 431.56 1025 431.56ZM1025 426.96C1022.44 426.96 1020.52 424.4 1020.52 416.08C1020.52 407.8 1022.44 405.4 1025 405.4C1027.52 405.4 1029.44 407.8 1029.44 416.08C1029.44 424.4 1027.52 426.96 1025 426.96ZM1048.56 431.56C1054.56 431.56 1058.56 426.28 1058.56 416.08C1058.56 405.88 1054.56 400.84 1048.56 400.84C1042.52 400.84 1038.52 405.84 1038.52 416.08C1038.52 426.28 1042.52 431.56 1048.56 431.56ZM1048.56 426.96C1046 426.96 1044.08 424.4 1044.08 416.08C1044.08 407.8 1046 405.4 1048.56 405.4C1051.08 405.4 1053 407.8 1053 416.08C1053 424.4 1051.08 426.96 1048.56 426.96ZM1066.75 431H1073.99L1077.23 416.36C1077.71 414.04 1078.11 411.76 1078.51 409.52H1078.67C1079.03 411.76 1079.47 414.04 1079.95 416.36L1083.27 431H1090.63L1096.11 401.4H1090.47L1088.15 415.84C1087.71 418.92 1087.27 422.08 1086.83 425.28H1086.63C1085.99 422.08 1085.39 418.88 1084.75 415.84L1081.31 401.4H1076.27L1072.83 415.84C1072.19 418.92 1071.55 422.12 1070.95 425.28H1070.79C1070.35 422.12 1069.87 418.96 1069.43 415.84L1067.07 401.4H1061.03L1066.75 431Z" fill="#333333"/>
    <path d="M1099.13 418.652H1112.72V421.388H1113.24V418.13H1106.65C1106.42 417.5 1105.88 416.618 1105.34 415.934L1104.89 416.132C1105.34 416.744 1105.81 417.518 1106.06 418.13H1098.61V421.388H1099.13V418.652ZM1113.51 425.834H1106.18V424.79C1107.73 423.998 1109.62 422.72 1110.81 421.496L1110.41 421.226L1110.31 421.262H1101.11V421.784H1109.77C1108.67 422.792 1107.03 423.89 1105.66 424.538V425.834H1098.26V426.356H1105.66V431.432C1105.66 431.684 1105.57 431.774 1105.27 431.792C1105 431.81 1104.02 431.81 1102.69 431.792C1102.8 431.936 1102.89 432.134 1102.94 432.278C1104.47 432.278 1105.25 432.278 1105.64 432.17C1106.04 432.062 1106.18 431.882 1106.18 431.414V426.356H1113.51V425.834Z" fill="#666666"/>
    <line x1="179.5" y1="398" x2="179.5" y2="462" stroke="#999999"/>
    <line x1="425.5" y1="398" x2="425.5" y2="462" stroke="#999999"/>
    <line x1="668.5" y1="398" x2="668.5" y2="462" stroke="#999999"/>
    <line x1="912.5" y1="398" x2="912.5" y2="462" stroke="#999999"/>
    <rect x="13" y="9" width="90" height="90" rx="45" fill="#E0473E"/>
    <path d="M45.256 48.904C44.716 48.202 43.6 47.086 42.7 46.294L41.8 47.086C42.7 47.914 43.798 49.084 44.302 49.822L45.256 48.904ZM44.626 58.768V51.532H40.846V52.756H43.348V58.84C43.348 59.776 42.736 60.46 42.376 60.766C42.628 60.946 43.042 61.396 43.204 61.666C43.438 61.306 43.888 60.946 46.822 58.444C46.678 58.21 46.462 57.706 46.336 57.364L44.626 58.768ZM48.298 50.722H51.016V52.594H48.298V50.722ZM48.298 47.806H51.016V49.66H48.298V47.806ZM54.742 49.66H52.258V47.806H54.742V49.66ZM54.742 52.594H52.258V50.722H54.742V52.594ZM57.136 56.446V55.222H52.294V53.71H56.02V46.708H47.074V53.71H50.98V55.222H46.12V56.446H50.206C49.09 58.192 47.254 59.866 45.508 60.676C45.778 60.91 46.174 61.36 46.372 61.684C48.064 60.73 49.828 59.002 50.98 57.112V62.368H52.294V57.094C53.428 58.822 55.066 60.55 56.506 61.504C56.722 61.18 57.136 60.73 57.424 60.478C55.93 59.632 54.202 58.03 53.068 56.446H57.136ZM72.814 50.704H67.108V47.716H72.814V50.704ZM74.11 46.564H65.848V51.874H74.11V46.564ZM65.02 55.798C64.714 55.294 63.346 53.35 62.842 52.738V52.324H65.056V51.064H62.842V47.86C63.58 47.662 64.282 47.428 64.858 47.158L64.012 46.078C62.896 46.636 60.934 47.158 59.26 47.482C59.404 47.788 59.584 48.238 59.656 48.544C60.268 48.436 60.934 48.31 61.582 48.166V51.064H59.062V52.324H61.384C60.772 54.358 59.674 56.68 58.666 57.976C58.9 58.318 59.242 58.894 59.368 59.254C60.178 58.21 60.952 56.536 61.582 54.808V62.386H62.842V54.358C63.346 55.258 63.922 56.338 64.156 56.914L65.02 55.798ZM70.744 60.658V58.174H74.344V56.968H70.744V54.628H74.74V53.404H65.506V54.628H69.43V56.968H65.938V58.174H69.43V60.658H64.714V61.9H75.136V60.658H70.744Z" fill="white"/>
    <rect x="5" y="1" width="106" height="106" rx="53" stroke="#E0473E" stroke-dasharray="6 6"/>
    <line x1="131.354" y1="95.6464" x2="216.354" y2="180.646" stroke="#E0473E" stroke-dasharray="6 6"/>
    <line x1="471.354" y1="93.3536" x2="386.354" y2="178.354" stroke="#E0473E" stroke-dasharray="6 6"/>
    <line x1="961.354" y1="94.3536" x2="876.354" y2="179.354" stroke="#E0473E" stroke-dasharray="6 6"/>
    <line x1="627.354" y1="94.6464" x2="712.354" y2="179.646" stroke="#E0473E" stroke-dasharray="6 6"/>
    <rect x="501" y="18" width="90" height="90" rx="45" fill="#E0473E"/>
    <path d="M536.244 55.006C536.19 57.742 536.298 66.49 528.828 70.27C529.242 70.558 529.674 70.954 529.908 71.314C534.3 68.974 536.208 64.942 537.036 61.342C537.9 64.69 539.826 69.136 544.326 71.242C544.524 70.864 544.92 70.414 545.298 70.108C538.944 67.282 537.864 59.758 537.594 57.616C537.684 56.554 537.702 55.654 537.72 55.006H536.244ZM560.706 56.842C559.59 56.212 557.394 55.42 555.774 54.988L555.234 56.032C556.872 56.518 559.05 57.364 560.148 58.012L560.706 56.842ZM548.844 64.096C548.88 63.376 548.88 62.656 548.88 62.026V61.036H551.328V64.096H548.844ZM551.328 56.824V59.812H548.88V56.824H551.328ZM556.152 61.612L555.936 61.666H553.11V62.908H555.54C555.018 65.356 553.902 67.39 552.57 68.434V55.6H547.692V62.044C547.692 64.672 547.602 68.272 546.468 70.792C546.774 70.9 547.296 71.206 547.548 71.422C548.286 69.712 548.628 67.444 548.772 65.338H551.328V69.784C551.328 70.018 551.256 70.09 551.004 70.108C550.806 70.126 550.104 70.126 549.294 70.108C549.474 70.45 549.654 71.026 549.69 71.368C550.842 71.368 551.526 71.332 551.958 71.116C552.408 70.882 552.57 70.504 552.57 69.784V68.632C552.84 68.902 553.128 69.298 553.272 69.568C555.09 68.146 556.422 65.464 556.926 61.846L556.152 61.612ZM561.948 59.812C561.39 60.676 560.472 61.828 559.662 62.692C559.392 61.9 559.14 61.072 558.942 60.226V58.426H554.172V59.704H557.664V69.802C557.664 70.054 557.574 70.126 557.304 70.144C557.07 70.144 556.188 70.162 555.252 70.126C555.432 70.486 555.612 71.062 555.666 71.422C556.98 71.422 557.772 71.404 558.294 71.17C558.78 70.936 558.942 70.558 558.942 69.82V63.772C559.806 66.274 561.012 68.398 562.578 69.604C562.794 69.262 563.208 68.794 563.514 68.542C562.092 67.588 560.958 65.86 560.094 63.826C561.012 62.98 562.146 61.72 563.1 60.676L561.948 59.812Z" fill="white"/>
    <rect x="493" y="10" width="106" height="106" rx="53" stroke="#E0473E" stroke-dasharray="6 6"/>
    <rect x="257" y="178" width="90" height="90" rx="45" fill="#E0473E"/>
    <path d="M286.754 217.436H299.3V218.876H300.596V216.302H293.828C293.576 215.852 293.216 215.294 292.892 214.844L291.776 215.24C291.974 215.564 292.208 215.942 292.424 216.302H285.494V218.876H286.754V217.436ZM295.916 220.388C295.304 221.198 294.476 221.828 293.414 222.35C292.172 222.08 290.858 221.846 289.544 221.648C289.958 221.27 290.372 220.838 290.822 220.388H295.916ZM300.452 224.132C299.03 223.646 297.176 223.16 295.106 222.692C296.078 222.08 296.852 221.324 297.392 220.388H300.866V219.29H291.794C292.136 218.876 292.496 218.426 292.766 218.03L291.578 217.652C291.236 218.174 290.822 218.732 290.354 219.29H285.188V220.388H289.4C288.734 221.108 288.068 221.774 287.456 222.314C288.878 222.53 290.246 222.764 291.56 223.016C289.832 223.502 287.708 223.772 285.134 223.898C285.35 224.186 285.548 224.618 285.638 224.978C288.968 224.744 291.614 224.312 293.63 223.466C295.916 223.97 297.878 224.51 299.336 225.05L300.452 224.132ZM301.046 226.976V225.842H293.612V224.366H292.298V225.842H285.008V226.976H291.254C289.67 228.344 287.078 229.532 284.666 230.072C284.954 230.306 285.314 230.828 285.512 231.134C287.978 230.486 290.624 229.082 292.298 227.426V231.368H293.612V227.354C295.322 229.064 298.076 230.486 300.578 231.152C300.776 230.828 301.136 230.324 301.442 230.054C299.012 229.532 296.384 228.362 294.746 226.976H301.046ZM305.87 214.97C305.168 217.598 304.016 220.19 302.648 221.882C302.882 222.224 303.224 222.944 303.314 223.232C303.764 222.674 304.178 222.044 304.592 221.342V231.35H305.852V218.786C306.32 217.652 306.734 216.5 307.076 215.312L305.87 214.97ZM307.382 217.202H309.29C308.75 220.046 307.868 222.728 306.536 224.492C306.842 224.69 307.346 225.104 307.544 225.32C308.336 224.204 309.002 222.764 309.542 221.144H311.882C311.666 222.62 311.342 223.97 310.892 225.194C310.388 224.744 309.722 224.24 309.2 223.862L308.48 224.762C309.092 225.248 309.848 225.878 310.406 226.4C309.56 228.2 308.444 229.568 307.148 230.378C307.454 230.612 307.832 231.08 307.994 231.404C310.748 229.478 312.62 225.77 313.214 220.064L312.44 219.866L312.224 219.902H309.92C310.172 219.038 310.388 218.12 310.55 217.202H313.592V215.942H307.382V217.202ZM315.59 217.022H314.384V227.012H315.59V217.022ZM317.318 215.024V229.568C317.318 229.856 317.21 229.946 316.922 229.964C316.634 229.964 315.662 229.964 314.618 229.928C314.798 230.306 314.996 230.882 315.05 231.242C316.436 231.242 317.318 231.206 317.84 230.99C318.362 230.774 318.56 230.396 318.56 229.568V215.024H317.318Z" fill="white"/>
    <rect x="249" y="170" width="106" height="106" rx="53" stroke="#E0473E" stroke-dasharray="6 6"/>
    <rect x="746" y="179" width="90" height="90" rx="45" fill="#E0473E"/>
    <path d="M777.878 222.774C777.14 222.198 775.664 221.424 774.53 220.974L773.81 221.946C774.98 222.468 776.402 223.278 777.14 223.89L777.878 222.774ZM775.538 232.134C776.6 230.478 777.86 228.246 778.796 226.356L777.824 225.474C776.798 227.508 775.376 229.866 774.422 231.234L775.538 232.134ZM774.782 217.104C775.97 217.644 777.428 218.508 778.148 219.12L778.922 218.004C778.166 217.428 776.69 216.618 775.502 216.132L774.782 217.104ZM789.866 231.756C789.326 230.37 787.976 228.228 786.716 226.662L785.636 227.166C786.194 227.868 786.734 228.678 787.238 229.488L781.55 230.118C782.666 228.606 783.782 226.698 784.718 224.79H789.794V223.512H785.078V220.308H789.056V219.03H785.078V215.934H783.746V219.03H779.912V220.308H783.746V223.512H779.12V224.79H783.134C782.234 226.806 781.046 228.714 780.65 229.254C780.2 229.902 779.84 230.334 779.498 230.424C779.66 230.784 779.876 231.45 779.948 231.756C780.434 231.522 781.19 231.396 787.868 230.568C788.21 231.234 788.516 231.846 788.696 232.35L789.866 231.756ZM800.846 218.004H805.814V226.302H807.128V216.816H799.568V226.302H800.846V218.004ZM798.83 228.732C798.398 228.192 796.58 226.05 795.878 225.312C795.914 224.97 795.95 224.646 795.986 224.322H798.704V223.062H796.04C796.058 222.684 796.058 222.288 796.058 221.928V220.164H798.506V218.922H796.058V216.132H794.798V218.922H792.224V220.164H794.798V221.946C794.798 222.288 794.798 222.684 794.78 223.062H791.828V224.322H794.726C794.546 226.734 793.916 229.488 791.72 231.27C792.044 231.468 792.494 231.918 792.656 232.188C794.366 230.676 795.23 228.678 795.644 226.68C796.436 227.67 797.48 229.038 797.894 229.74L798.83 228.732ZM805.13 230.928C804.662 230.928 804.518 230.82 804.518 230.334V225.78H803.69C803.906 224.808 803.978 223.854 803.978 222.972V219.534H802.718V222.954C802.718 225.726 802.16 229.092 797.66 231.396C797.894 231.576 798.326 232.098 798.488 232.368C801.206 230.946 802.61 229.038 803.312 227.094V230.46C803.312 231.666 803.78 231.99 804.95 231.99H806.372C807.848 231.99 808.064 231.288 808.208 228.498C807.884 228.426 807.434 228.228 807.11 227.976C807.038 230.46 806.948 230.928 806.39 230.928H805.13Z" fill="white"/>
    <rect x="738" y="171" width="106" height="106" rx="53" stroke="#E0473E" stroke-dasharray="6 6"/>
    <rect x="989" y="17" width="90" height="90" rx="45" fill="#E0473E"/>
    <path d="M1032.99 61.206H1025.67V56.58H1032.16V55.23H1017.94V56.58H1024.21V61.206H1017.03V62.574H1024.21V70.35H1025.67V62.574H1032.99V61.206ZM1043.4 58.668C1043.4 60.072 1043.86 60.432 1045.66 60.432H1048.94C1050.38 60.432 1050.79 59.91 1050.94 57.93C1050.58 57.858 1050.04 57.66 1049.75 57.444C1049.68 59.028 1049.53 59.28 1048.83 59.28H1045.77C1044.87 59.28 1044.71 59.172 1044.71 58.668V57.444C1046.92 56.922 1049.01 56.256 1050.54 55.464L1049.64 54.51C1048.45 55.194 1046.65 55.806 1044.71 56.328V54.024H1043.4V56.67C1042.5 56.886 1041.6 57.066 1040.7 57.246C1040.86 57.516 1041.04 57.948 1041.09 58.218C1041.85 58.074 1042.62 57.93 1043.4 57.768V58.668ZM1048.74 67.074V61.512H1037.51V67.182H1038.86V62.754H1047.36V67.074H1048.74ZM1038.14 60.792H1039.47V56.112C1040.1 55.536 1040.7 54.924 1041.16 54.312L1039.94 53.862C1038.73 55.41 1036.74 56.886 1034.77 57.804C1035.08 58.02 1035.57 58.506 1035.76 58.758C1036.54 58.326 1037.35 57.804 1038.14 57.21V60.792ZM1043.67 63.474H1042.28V65.004C1042.28 66.354 1041.74 68.136 1035.21 69.306C1035.51 69.576 1035.91 70.08 1036.03 70.386C1042.82 69.018 1043.67 66.84 1043.67 65.04V63.474ZM1043.49 67.74C1045.74 68.424 1048.63 69.558 1050.11 70.386L1050.87 69.342C1049.3 68.496 1046.4 67.434 1044.21 66.804L1043.49 67.74Z" fill="white"/>
    <rect x="981" y="9" width="106" height="106" rx="53" stroke="#E0473E" stroke-dasharray="6 6"/>
</svg>
