<svg width="144" height="64" viewBox="0 0 144 64" fill="none" xmlns="http://www.w3.org/2000/svg">
    <g clip-path="url(#clip0)">
        <path d="M80.8383 16.9247L81.6417 10.394C78.6869 10.394 76.1828 12.6292 75.7588 15.6369L75.2008 19.6013L74.75 22.4573C77.8388 22.4573 80.45 20.0888 80.8383 16.9247Z" fill="white"/>
        <path d="M93.4215 28.3394H91.3861C89.5293 28.3394 87.851 29.4753 87.11 31.2275L85.8379 34.0421L86.9538 34.0467H91.0112L93.4215 28.3394Z" fill="white"/>
        <path d="M100.335 34.4192V27.3827H111.351V24.4485H100.335V23.4644H96.0053V24.4485H84.9893V27.3827H96.0053V34.4192H100.335Z" fill="white"/>
        <path d="M92.363 14.0683H86.4667C85.9757 14.0683 85.574 14.4822 85.574 14.9881V21.7441C85.574 22.25 85.9757 22.6639 86.4667 22.6639H102.928C103.928 22.6639 104.843 22.0752 105.285 21.1508L105.575 20.5391C105.722 20.2356 105.504 19.8769 105.173 19.8769H103.982V17.0899H106.521V22.6639H109.882C110.373 22.6639 110.775 22.25 110.775 21.7441V14.9881C110.775 14.4822 110.373 14.0683 109.882 14.0683H103.977V12.5046H111.351V11.4837C111.351 10.4673 110.552 9.64404 109.565 9.64404H86.7747C85.7882 9.64404 84.9893 10.4673 84.9893 11.4837V12.5046H92.363V14.0683ZM92.363 19.7711H89.85V17.0853H92.363V19.7711ZM96.7016 12.5046H99.6386V14.0683H96.7016V12.5046ZM96.7016 17.0899H99.6386V19.8769H96.7016V17.0899Z" fill="white"/>
        <path d="M109.23 31.2275C108.489 29.4753 106.811 28.3394 104.954 28.3394H102.919L105.334 34.0467H109.391H110.502L109.23 31.2275Z" fill="white"/>
        <path d="M137.851 9.6167H115.618C114.632 9.6167 113.833 10.4399 113.833 11.4563V34.387H118.118V30.2617H121.76L122.555 28.1784L122.702 27.7966C123.702 29.2499 124.345 30.2617 126.206 30.2617H129.629L130.232 28.5509L130.527 27.7782C131.147 28.9648 132.196 30.2571 133.66 30.2571H135.347L132.549 22.4894L135.356 15.0527V30.2571H135.352L135.356 30.2755V31.6H132.723L133.084 34.387H139.637V11.4563C139.637 10.4399 138.838 9.6167 137.851 9.6167ZM118.118 30.2157V15.0573L121.1 22.494L118.118 30.2157ZM126.853 28.4405L124.724 22.494L126.853 16.5474L128.982 22.494L126.853 28.4405ZM135.352 15.0022H131.843L130.852 17.6006C130.411 16.1657 128.723 15.0022 127.264 15.0022H123.947L123.01 17.4948V17.4166C122.568 15.9817 121.274 15.0022 119.81 15.0022H118.118V12.5647H135.352V15.0022Z" fill="white"/>
        <path d="M64.5908 46.8366C63.8142 46.1283 62.8054 45.7742 61.5958 45.7742C60.7254 45.7742 59.9041 46.0364 59.1587 46.5561L59.3506 44.1922H64.7203L64.7381 44.0404C64.7738 43.7506 64.6846 43.4563 64.4926 43.2356C64.3052 43.0148 64.0329 42.8906 63.7472 42.8906H58.0428L57.659 48.0139L59.0025 48.2485L59.065 48.1611C59.1319 48.0645 59.2033 47.9772 59.2837 47.899C59.8595 47.3057 60.6094 47.0068 61.5021 47.0068C62.0511 47.0068 62.5376 47.1217 62.9483 47.3563C63.5955 47.7334 63.9079 48.2623 63.9079 48.9659C63.9079 49.4212 63.7919 49.8168 63.5687 50.1387C63.1045 50.7688 62.3189 51.0907 61.2253 51.0907C60.9888 51.0907 60.7567 51.0677 60.5379 51.0171C59.6408 50.8469 59.0382 50.3962 58.6945 49.6328L58.6365 49.504L57.1367 49.9087L57.1992 50.0881C57.3867 50.6124 57.7438 51.0677 58.2571 51.4448C59.0605 52.0243 60.047 52.3186 61.1896 52.3186C62.2296 52.3186 63.1536 52.0979 63.9347 51.661C65.0149 51.0355 65.5639 50.1341 65.5639 48.9843C65.5639 48.1473 65.2381 47.4299 64.5908 46.8366Z" fill="white"/>
        <path d="M72.358 43.5209C72.358 43.1714 72.0812 42.8862 71.742 42.8862H71.1216L71.0725 42.9368C70.3048 43.7416 69.1933 44.4499 67.7784 45.0432L67.6757 45.0846V46.5838L67.9078 46.4827C68.8854 46.0642 69.8227 45.4893 70.6976 44.7718V51.0081H67.4258V52.1809H75.411V51.0081H72.358V43.5209Z" fill="white"/>
        <path d="M84.6007 42.8862H84.1722V49.8262L79.432 43.1438C79.3159 42.9828 79.1329 42.8862 78.9365 42.8862H78.325C77.7403 42.8862 77.2627 43.3783 77.2627 43.9808V52.1901H78.758V44.735L84.0205 52.1165L84.0696 52.1855H85.6631V43.9808C85.6586 43.3783 85.1855 42.8862 84.6007 42.8862Z" fill="white"/>
        <path d="M94.077 43.5163C93.47 43.0978 92.5505 42.8862 91.3498 42.8862H88.5779C87.9932 42.8862 87.5156 43.3783 87.5156 43.9808V52.1901H89.2207V48.543H91.5016C92.6889 48.543 93.6083 48.2855 94.2377 47.7796L94.318 47.7152C94.9474 47.1725 95.2643 46.5103 95.2643 45.7468C95.2643 45.6456 95.2599 45.5445 95.2465 45.4249C95.1304 44.6063 94.7376 43.967 94.077 43.5163ZM93.3941 46.3907C93.1129 46.9794 92.43 47.2783 91.3632 47.2783H89.2252V44.1648H91.4569C91.7962 44.1648 92.1041 44.2016 92.3764 44.2705C93.1665 44.5051 93.5503 44.9834 93.5503 45.7376C93.5503 45.9814 93.5012 46.1975 93.3941 46.3907Z" fill="white"/>
        <path d="M98.8355 42.8862H98.1883C97.6036 42.8862 97.126 43.3783 97.126 43.9808V52.1901H103.928V50.8517H98.831V42.8862H98.8355Z" fill="white"/>
        <path d="M105.789 51.0402V52.1577H107.9V49.9502H106.851C106.267 49.9456 105.789 50.4377 105.789 51.0402Z" fill="white"/>
        <path d="M115.185 48.9891C115.177 49.0581 115.163 49.1225 115.141 49.1961C114.86 50.3275 114.27 50.8793 113.338 50.8793C112.918 50.8793 112.57 50.7506 112.28 50.4884C111.704 49.9595 111.414 49.0305 111.414 47.7244C111.414 47.2369 111.467 46.777 111.579 46.3585C111.891 45.2225 112.489 44.6707 113.413 44.6707C113.48 44.6707 113.543 44.6753 113.619 44.6845C113.842 44.7028 114.038 44.7626 114.208 44.8592C114.784 45.1765 115.101 45.7238 115.181 46.5379L115.199 46.7218L116.694 46.4505L116.667 46.2803C116.591 45.8066 116.458 45.3651 116.261 44.9742C115.681 43.8152 114.712 43.2266 113.387 43.2266C112.387 43.2266 111.552 43.5899 110.909 44.3119C110.146 45.1673 109.758 46.3401 109.758 47.8026C109.758 48.7454 109.936 49.5916 110.289 50.3183C110.918 51.6382 111.954 52.3096 113.369 52.3096C113.922 52.3096 114.436 52.1901 114.895 51.9509C115.842 51.445 116.44 50.5344 116.667 49.2421L116.699 49.0719L115.208 48.8052L115.185 48.9891Z" fill="white"/>
        <path d="M122.421 43.2354C121.385 43.2354 120.515 43.5711 119.845 44.2287C118.97 45.0704 118.528 46.2569 118.528 47.7424C118.528 48.7312 118.725 49.6142 119.109 50.3776C119.76 51.6654 120.8 52.3184 122.202 52.3184C123.273 52.3184 124.166 51.9597 124.858 51.2561C125.71 50.4006 126.139 49.2233 126.139 47.7608C126.139 46.749 125.915 45.843 125.478 45.075C124.795 43.8516 123.769 43.2354 122.421 43.2354ZM124.313 48.9427C124.036 50.2673 123.385 50.9111 122.309 50.9111C121.938 50.9111 121.617 50.8237 121.354 50.649C120.622 50.1937 120.251 49.2141 120.251 47.747C120.251 47.2687 120.3 46.818 120.403 46.4087C120.707 45.2221 121.331 44.6427 122.313 44.6427C122.733 44.6427 123.099 44.753 123.403 44.9646C124.081 45.4521 124.42 46.3857 124.42 47.747C124.42 48.1655 124.384 48.5702 124.313 48.9427Z" fill="white"/>
        <path d="M138.56 44.2382C138.038 43.6358 137.395 43.3276 136.641 43.3276C136.342 43.3276 136.047 43.3782 135.761 43.4794C135.025 43.7278 134.453 44.2428 134.056 45.0063C133.998 44.8545 133.931 44.7073 133.851 44.5694C133.373 43.7461 132.664 43.3276 131.744 43.3276C131.423 43.3276 131.11 43.392 130.825 43.5162C130.249 43.7461 129.789 44.1417 129.45 44.6889V43.553H129.053C128.468 43.553 127.99 44.0451 127.99 44.6476V52.2497H129.57V47.292C129.57 46.4872 129.722 45.8801 130.026 45.4754C130.039 45.4524 130.061 45.4294 130.088 45.3972C130.472 44.9511 130.887 44.7303 131.351 44.7303C131.53 44.7303 131.691 44.7533 131.829 44.8039C132.494 45.0247 132.82 45.6731 132.82 46.7769V52.2497H134.4V47.292C134.409 46.5699 134.547 45.9951 134.806 45.5904C135.212 45.0109 135.685 44.7303 136.243 44.7303C136.404 44.7303 136.556 44.7487 136.69 44.7855C137.337 44.9971 137.649 45.6409 137.649 46.7585V52.2451H139.229V46.8091C139.229 45.8157 139.096 45.0983 138.81 44.6062L138.56 44.2382Z" fill="white"/>
        <path d="M75.7632 26.0306C75.5981 25.8559 75.4195 25.6949 75.2365 25.5385H75.241L71.5764 21.7397C71.9157 20.4198 72.1522 18.9895 72.1656 17.7018L72.2593 10.6423C72.2593 10.1272 71.8532 9.7041 71.3488 9.7041H68.4296C67.9297 9.7041 67.5369 10.1226 67.5369 10.6423L67.4566 17.734C67.2334 22.5906 64.35 26.302 60.0918 28.5233C57.9314 29.6501 56.5254 31.8852 56.5254 34.3825C62.0959 33.7018 66.8719 30.6802 69.6259 26.3296L76.9996 34.3825H83.7931L75.7632 26.0306Z" fill="white"/>
        <path d="M62.0287 10.4678C61.9706 10.3114 61.7519 10.339 61.7251 10.5046C61.5466 11.7187 60.9931 14.4781 59.4755 16.1706C57.3777 18.5069 57.8463 22.5494 60.7967 22.2091C65.9744 21.6158 62.9348 12.8087 62.0287 10.4678Z" fill="white"/>
        <path fill-rule="evenodd" clip-rule="evenodd" d="M45.0386 9H12.0268C9.66196 9 7.73145 10.993 7.73145 13.4345V47.5156C7.73145 49.9571 9.66196 51.9502 12.0268 51.9502H45.0386C47.4035 51.9502 49.334 49.9571 49.334 47.5156V13.4345C49.3822 10.993 47.4517 9 45.0386 9ZM19.5558 43.3801L18.1079 41.9849C14.4882 37.949 14.1021 35.1089 14.1021 29.08C14.1021 25.3928 14.2469 21.1576 14.0539 17.5701C15.9844 17.7196 16.9979 18.1182 18.2045 19.1147C19.0249 19.8123 19.9419 20.9583 20.328 22.6025C21.1968 26.19 19.7489 34.6605 21.1485 38.7961C21.5829 40.1414 22.4516 41.686 23.1273 42.4334C26.1196 45.7717 26.8435 45.3731 30.1736 46.5689C25.8783 46.8679 22.5481 45.7219 19.5558 43.3801ZM29.4014 38.5968C27.7122 37.4009 26.5539 35.956 25.83 33.8633C24.8647 31.0232 25.5404 21.3071 25.3474 17.5203C26.5057 17.5701 27.664 17.8192 28.5327 18.3673C29.0153 18.6663 29.4014 18.9154 29.691 19.2642C30.2219 19.8621 30.0289 19.4635 30.6563 20.4102C32.0559 22.6025 31.7663 24.6952 31.7663 27.5852C31.7663 29.5782 31.5733 33.9629 31.9594 35.657C32.249 36.9027 33.0212 38.0487 33.9381 38.7462C34.5656 39.2445 35.2412 39.4438 35.9169 39.7926C33.7934 40.54 30.8976 39.6929 29.4014 38.5968ZM42.5289 27.336C41.8532 29.2793 39.3918 31.6709 36.6409 31.372C36.5443 29.1298 36.3996 23.6987 37.027 21.8053C37.5096 20.4102 38.3301 19.613 39.1988 18.8656C40.1158 18.0684 41.4671 17.6698 43.0598 17.5701C42.8668 20.5597 43.4942 24.5956 42.5289 27.336Z" fill="white"/>
    </g>
    <defs>
        <clipPath id="clip0">
            <rect width="144" height="64" fill="white"/>
        </clipPath>
    </defs>
</svg>
