<svg width="30" height="30" viewBox="0 0 30 30" fill="none" xmlns="http://www.w3.org/2000/svg">
    <path fill-rule="evenodd" clip-rule="evenodd" d="M3.53004 0.549805H26.3318C27.9694 0.549805 29.311 1.88496 29.311 3.5206V26.2601C29.311 27.8931 27.9721 29.2309 26.3318 29.2309H3.53004C1.89237 29.2309 0.550781 27.8957 0.550781 26.2601V3.5206C0.550781 1.88496 1.89237 0.549805 3.53004 0.549805Z" fill="#E60012"/>
    <path fill-rule="evenodd" clip-rule="evenodd" d="M15.9796 25.5883C13.0711 25.8286 10.7705 25.0343 8.70833 23.4719L7.69428 22.5443C5.20763 19.8505 4.92464 17.9614 4.92464 13.9324C4.92464 11.4685 5.03731 8.66233 4.89844 6.24023C6.2243 6.34736 6.93178 6.61126 7.75193 7.27753C8.32577 7.74261 8.9494 8.51862 9.21929 9.59772C9.81671 11.9859 8.81576 17.6557 9.76955 20.3913C10.0761 21.2719 10.6657 22.3144 11.1295 22.8134C13.1812 25.0291 13.7026 24.7887 15.9796 25.5883Z" fill="white"/>
    <path fill-rule="evenodd" clip-rule="evenodd" d="M20.0079 21.1046C18.5458 21.5749 16.5518 21.0158 15.5089 20.292C14.3455 19.4847 13.5253 18.5257 13.0301 17.1357C12.3567 15.2493 12.8362 8.75898 12.7 6.24805C13.5018 6.28201 14.3036 6.45446 14.9141 6.82026C15.2626 7.02928 15.5037 7.18083 15.7185 7.42382C16.0696 7.82097 15.9648 7.56491 16.3736 8.17632C17.351 9.63689 17.1466 11.0504 17.1466 12.9656C17.1466 14.2877 16.9972 17.2272 17.2855 18.3481C17.5003 19.1842 18.0034 19.9262 18.6454 20.42C19.0751 20.7519 19.5415 20.8851 20.0079 21.1046Z" fill="white"/>
    <path fill-rule="evenodd" clip-rule="evenodd" d="M20.5263 15.4687C20.4529 13.9768 20.3612 10.3345 20.8041 9.07252C21.1342 8.12929 21.7028 7.60411 22.2871 7.12335C22.9265 6.60078 23.8698 6.31337 24.9441 6.24805C24.8183 8.25732 25.235 10.9616 24.5956 12.7645C24.1397 14.0604 22.426 15.6595 20.5263 15.4687Z" fill="white"/>
</svg>
