<svg width="156" height="56" viewBox="0 0 156 56" fill="none" xmlns="http://www.w3.org/2000/svg">
    <g clip-path="url(#clip0)">
        <path fill-rule="evenodd" clip-rule="evenodd" d="M5.52539 0.418945H49.3161C52.4613 0.418945 55.0378 2.99696 55.0378 6.15516V50.0622C55.0378 53.2153 52.4663 55.7984 49.3161 55.7984H5.52539C2.38023 55.7984 -0.196289 53.2204 -0.196289 50.0622V6.15516C-0.196289 2.99696 2.38023 0.418945 5.52539 0.418945Z" fill="#E60012"/>
        <rect x="-11.0713" y="-6.55859" width="74.9806" height="74.1622"/>
        <path fill-rule="evenodd" clip-rule="evenodd" d="M29.4328 48.7653C23.847 49.2294 19.4287 47.6957 15.4683 44.6788L13.5208 42.8878C8.74517 37.6864 8.20169 34.0388 8.20169 26.2594C8.20169 21.5019 8.41808 16.0835 8.15137 11.4067C10.6977 11.6136 12.0564 12.1231 13.6315 13.4096C14.7336 14.3076 15.9312 15.806 16.4496 17.8896C17.5969 22.5008 15.6746 33.4485 17.5063 38.7307C18.0951 40.4309 19.2274 42.4439 20.1181 43.4075C24.0583 47.6857 25.0598 47.2215 29.4328 48.7653Z" fill="white"/>
        <path fill-rule="evenodd" clip-rule="evenodd" d="M37.1729 40.108C34.3649 41.0161 30.5354 39.9365 28.5325 38.539C26.2982 36.9801 24.7231 35.1285 23.772 32.4446C22.4787 28.8021 23.3996 16.2702 23.138 11.4219C24.6778 11.4875 26.2177 11.8204 27.3902 12.5267C28.0595 12.9303 28.5225 13.223 28.9351 13.6921C29.6094 14.459 29.4081 13.9646 30.1932 15.1451C32.0702 17.9653 31.6777 20.6947 31.6777 24.3927C31.6777 26.9455 31.3909 32.6212 31.9444 34.7855C32.3571 36.3999 33.3232 37.8327 34.5561 38.7862C35.3814 39.4269 36.2772 39.6842 37.1729 40.108Z" fill="white"/>
        <path fill-rule="evenodd" clip-rule="evenodd" d="M38.1639 29.2258C38.023 26.3451 37.8469 19.3123 38.6974 16.8756C39.3314 15.0543 40.4234 14.0403 41.5456 13.112C42.7735 12.103 44.5851 11.548 46.6483 11.4219C46.4068 15.3015 47.2069 20.5231 45.979 24.0042C45.1034 26.5066 41.8123 29.5941 38.1639 29.2258Z" fill="white"/>
        <path d="M83.5455 16.9264L84.1746 12.5775C84.6526 9.27302 87.4807 6.82617 90.8071 6.82617L89.9013 13.9901C89.4635 17.4561 86.5196 20.0593 83.0322 20.0593" fill="#070606"/>
        <path d="M124.307 8.01655V9.13655H115.993V10.8519H122.641C123.194 10.8519 123.647 11.3059 123.647 11.8609V19.272C123.647 19.827 123.194 20.2811 122.641 20.2811H118.852V14.1665H115.988V17.2238H117.332C117.704 17.2238 117.946 17.6173 117.785 17.9502L117.458 18.6212C116.96 19.6353 115.933 20.2811 114.806 20.2811H96.2467C95.6932 20.2811 95.2403 19.827 95.2403 19.272V11.8609C95.2403 11.3059 95.6932 10.8519 96.2467 10.8519H102.894V9.13655H94.5811V8.01655C94.5811 6.9016 95.4818 5.99854 96.594 5.99854H122.289C123.406 5.99854 124.307 6.9016 124.307 8.01655ZM107.006 33.1762V25.4573H94.5861V22.2436H107.006V21.1589H111.887V22.2436H124.307V25.4573H111.887V33.1812H107.006V33.1762ZM96.8003 32.7675L95.5422 32.7625L96.9764 29.6749C97.8118 27.7528 99.7039 26.5066 101.797 26.5066H104.092L101.375 32.7675H96.8003ZM102.899 17.1077V14.1614H100.066V17.1077H102.899ZM107.791 10.8519H111.102V9.13655H107.791V10.8519ZM107.791 17.2238H111.102V14.1665H107.791V17.2238ZM117.523 32.7675L114.801 26.5066H117.095C119.189 26.5066 121.081 27.7528 121.916 29.6749L123.35 32.7675H122.097H117.523Z" fill="#070606"/>
        <path d="M131.935 28.6155V33.1409H127.104V7.98628C127.104 6.87132 128.005 5.96826 129.117 5.96826H154.183C155.295 5.96826 156.196 6.87132 156.196 7.98628V33.1409H148.804L148.396 30.0836H151.365V28.6155H149.458C147.807 28.6155 146.625 27.1978 145.925 25.8962L145.593 26.7387L144.914 28.6155H141.054C138.955 28.6155 138.231 27.5056 137.104 25.9113L136.938 26.3301L136.042 28.6155H131.935ZM131.935 11.876H133.843C135.493 11.876 136.953 12.9456 137.451 14.5247V14.6104L138.508 11.876H142.247C143.897 11.876 145.794 13.1474 146.292 14.7265L147.41 11.876H151.365V9.20214H131.935V11.876ZM131.935 11.9366V28.565L135.297 20.0994L131.935 11.9366ZM141.784 26.6176L144.184 20.0944L141.784 13.5711L139.383 20.0944L141.784 26.6176ZM151.365 28.6357V11.9366L148.2 20.0944L151.365 28.6357Z" fill="#070606"/>
        <path d="M71.5893 46.7979C70.7136 46.021 69.5764 45.6325 68.2126 45.6325C67.2313 45.6325 66.3054 45.9201 65.465 46.4901L65.6814 43.897H71.7402L71.7604 43.7305C71.8006 43.4127 71.6949 43.0898 71.4836 42.8476C71.2722 42.6055 70.9653 42.4692 70.6432 42.4692H64.212L63.7792 48.0894L65.2939 48.3467L65.3644 48.2509C65.4398 48.1449 65.5204 48.0541 65.6109 47.9633C66.2651 47.3125 67.1055 46.9846 68.112 46.9846C68.7309 46.9846 69.2795 47.1107 69.7424 47.368C70.4721 47.7817 70.8244 48.3619 70.8244 49.1337C70.8244 49.6332 70.6935 50.0671 70.4419 50.4202C69.9186 51.1114 69.0329 51.4646 67.8 51.4646C67.5333 51.4646 67.2716 51.4393 67.025 51.3838C66.0135 51.1972 65.3342 50.7028 64.9467 49.8653L64.8813 49.724L63.1904 50.168L63.2609 50.3647C63.4722 50.9399 63.8748 51.4393 64.4535 51.853C65.3593 52.4887 66.4715 52.8116 67.7597 52.8116C68.9322 52.8116 69.9739 52.5694 70.8546 52.0901C72.0724 51.404 72.6913 50.4152 72.6913 49.1539C72.6863 48.2357 72.3189 47.4437 71.5893 46.7979Z" fill="#070606"/>
        <path d="M80.3458 43.1606C80.3458 42.7772 80.0338 42.4644 79.6513 42.4644H78.9519L78.8965 42.5199C78.031 43.4027 76.7779 44.1797 75.1827 44.8305L75.067 44.8759V46.5206L75.3286 46.4096C76.4307 45.9505 77.4875 45.3199 78.4738 44.5328V51.3739H74.7852V52.6604H83.7879V51.3739H80.3458V43.1606Z" fill="#070606"/>
        <path d="M94.1489 42.4644H93.6658V50.0773L88.3265 42.7469C88.1957 42.5703 87.9894 42.4644 87.768 42.4644H87.0785C86.4193 42.4644 85.8809 43.0042 85.8809 43.6651V52.6705H87.5616V44.4925L93.4947 52.5898L93.55 52.6654H95.3465V43.6651C95.3415 43.0042 94.8081 42.4644 94.1489 42.4644Z" fill="#070606"/>
        <path d="M104.832 43.1555C104.148 42.6964 103.116 42.4644 101.757 42.4644H98.6323C97.973 42.4644 97.4346 43.0042 97.4346 43.6651V52.6705H99.3569V48.6698H101.928C103.267 48.6698 104.304 48.3872 105.013 47.8323L105.104 47.7617C105.813 47.1663 106.171 46.4399 106.171 45.6024C106.171 45.4964 106.166 45.3804 106.15 45.2492C106.02 44.3512 105.577 43.6499 104.832 43.1555ZM104.238 45.5923C104.238 45.8597 104.183 46.0968 104.062 46.3087C103.745 46.9544 102.975 47.2824 101.772 47.2824H99.3619V43.8669H101.878C102.261 43.8669 102.608 43.9072 102.915 43.9829C103.805 44.2402 104.238 44.7649 104.238 45.5923Z" fill="#070606"/>
        <path d="M110.197 42.4644H109.467C108.808 42.4644 108.27 43.0042 108.27 43.6651V52.6705H115.939V51.2024H110.192V42.4644H110.197Z" fill="#070606"/>
        <path d="M118.037 51.4091V52.635H120.417V50.2134H119.23C118.576 50.2084 118.037 50.7482 118.037 51.4091Z" fill="#070606"/>
        <path d="M128.63 49.1593C128.62 49.235 128.605 49.3056 128.58 49.3864C128.263 50.6325 127.598 51.2328 126.547 51.2328C126.074 51.2328 125.681 51.0916 125.354 50.804C124.71 50.2238 124.378 49.2047 124.378 47.7719C124.378 47.2372 124.438 46.7327 124.564 46.2736C124.916 45.0274 125.59 44.422 126.632 44.422C126.708 44.422 126.778 44.4271 126.864 44.4372C127.115 44.4573 127.342 44.5229 127.528 44.6289C128.177 44.977 128.534 45.5773 128.625 46.4703L128.645 46.6721L130.331 46.3745L130.301 46.1878C130.215 45.6631 130.064 45.1838 129.843 44.755C129.189 43.4837 128.102 42.8379 126.602 42.8379C125.475 42.8379 124.534 43.2364 123.809 44.0285C122.949 44.9669 122.511 46.2534 122.511 47.8577C122.511 48.8919 122.712 49.8202 123.11 50.6173C123.819 52.0653 124.987 52.8019 126.582 52.8019C127.206 52.8019 127.785 52.6707 128.303 52.4083C129.37 51.8534 130.044 50.8545 130.301 49.4368L130.336 49.2501L128.655 48.9575L128.63 49.1593Z" fill="#070606"/>
        <path d="M136.788 42.8477C135.62 42.8477 134.639 43.2159 133.884 43.9374C132.898 44.8606 132.399 46.1623 132.399 47.7918C132.399 48.8765 132.621 49.8451 133.054 50.6826C133.788 52.0952 134.961 52.8116 136.541 52.8116C137.744 52.8116 138.755 52.4181 139.535 51.6462C140.496 50.7078 140.979 49.4163 140.979 47.812C140.979 46.7021 140.728 45.7082 140.235 44.8657C139.465 43.5237 138.307 42.8477 136.788 42.8477ZM139.042 47.7918C139.042 48.2559 139.002 48.705 138.921 49.1086C138.614 50.5615 137.875 51.2678 136.662 51.2678C136.244 51.2678 135.882 51.172 135.585 50.9803C134.76 50.4808 134.342 49.4062 134.342 47.7968C134.342 47.2772 134.397 46.7828 134.513 46.3287C134.855 45.0271 135.56 44.3914 136.667 44.3914C137.14 44.3914 137.552 44.5125 137.895 44.7446C138.655 45.2743 139.042 46.3035 139.042 47.7918Z" fill="#070606"/>
        <path d="M155.28 44.3513L154.988 43.9477C154.4 43.2868 153.675 42.9487 152.825 42.9487C152.487 42.9487 152.155 43.0042 151.833 43.1152C151.003 43.3877 150.359 43.9527 149.911 44.7902C149.851 44.6237 149.77 44.4622 149.685 44.3109C149.146 43.4078 148.346 42.9487 147.309 42.9487C146.947 42.9487 146.595 43.0194 146.273 43.1556C145.623 43.4078 145.105 43.8417 144.723 44.4421V43.1959H144.275C143.616 43.1959 143.077 43.7358 143.077 44.3967V52.7361H144.859V47.2976C144.859 46.4147 145.03 45.7487 145.372 45.3048C145.392 45.2795 145.412 45.2543 145.442 45.219C145.875 44.7296 146.343 44.4875 146.866 44.4875C147.068 44.4875 147.249 44.5127 147.405 44.5682C148.155 44.8104 148.522 45.5217 148.522 46.7325V52.7361H150.303V47.2976C150.314 46.5055 150.47 45.8749 150.761 45.4309C151.219 44.7952 151.753 44.4875 152.382 44.4875C152.563 44.4875 152.734 44.5077 152.885 44.548C153.615 44.7801 153.967 45.4864 153.967 46.7123V52.7311H155.748V46.7678C155.753 45.6831 155.602 44.8961 155.28 44.3513Z" fill="#070606"/>
        <path d="M84.1841 23.9739C83.9929 23.7822 83.7967 23.6056 83.5903 23.4341H83.5954L79.4639 19.2668C79.8463 17.8189 80.1131 16.2499 80.1281 14.8373L80.2338 7.09315C80.2338 6.52811 79.7759 6.06396 79.2072 6.06396H75.9162C75.3525 6.06396 74.9097 6.52306 74.9097 7.09315L74.8191 14.8726C74.5675 20.2002 71.3167 24.2715 66.5159 26.7083C64.0803 27.9443 62.4951 30.3962 62.4951 33.1357C68.7754 32.389 74.1599 29.0744 77.2648 24.3018L85.5781 33.1357H93.2372L84.1841 23.9739Z" fill="#070606"/>
        <path d="M68.7002 6.90166C68.6348 6.73012 68.3882 6.76039 68.358 6.94202C68.1567 8.27391 67.5327 11.3009 65.8218 13.1575C63.4566 15.7204 63.985 20.155 67.3113 19.7817C73.1488 19.1308 69.7218 9.46958 68.7002 6.90166Z" fill="#070606"/>
    </g>
    <defs>
        <clipPath id="clip0">
            <rect width="156" height="56" fill="white"/>
        </clipPath>
    </defs>
</svg>
