<svg width="24" height="24" viewBox="0 0 24 24" fill="none" xmlns="http://www.w3.org/2000/svg">
    <path d="M4.34375 3.48097C4.05469 3.48097 3.7793 3.61749 3.57227 3.86278C3.36523 4.11038 3.25 4.43434 3.25 4.77681V15.5416C3.25 15.8841 3.36523 16.2103 3.57227 16.4556C3.7793 16.7009 4.05469 16.8374 4.34375 16.8374H10.7266C10.9609 16.8374 11.1895 16.9115 11.3926 17.0503L11.4395 17.0827L11.4844 17.1198L14.6934 19.7855V18.411C14.6934 17.5432 15.2891 16.8374 16.0215 16.8374H19.6562C19.9453 16.8374 20.2207 16.7009 20.4277 16.4556C20.6348 16.208 20.75 15.8841 20.75 15.5416V4.77681C20.75 4.43434 20.6348 4.10806 20.4277 3.86278C20.2207 3.61749 19.9453 3.48097 19.6562 3.48097H4.34375ZM4.34375 2H19.6562C20.9453 2 22 3.24957 22 4.77681V15.5416C22 17.0688 20.9453 18.3184 19.6562 18.3184H16.0215C15.9785 18.3184 15.9434 18.3601 15.9434 18.411V21.3058C15.9434 21.7084 15.6641 22 15.3574 22C15.2695 22 15.1777 21.9745 15.0898 21.9236L10.7656 18.33C10.7539 18.3207 10.7402 18.3184 10.7266 18.3184H4.34375C3.05469 18.3184 2 17.0688 2 15.5416V4.77681C2 3.24957 3.05469 2 4.34375 2Z" fill="#999999" stroke="#999999" stroke-width="0.2"/>
    <circle cx="8" cy="11" r="1" fill="#999999"/>
    <circle cx="12" cy="11" r="1" fill="#999999"/>
    <circle cx="16" cy="11" r="1" fill="#999999"/>
</svg>
