<svg width="44" height="44" viewBox="0 0 44 44" fill="none" xmlns="http://www.w3.org/2000/svg">
    <path d="M33.837 9.57406C30.683 6.51506 26.541 4.86206 22.133 4.93806C13.678 5.10906 6.64798 11.8161 6.13498 20.2141C5.94498 23.2731 6.59098 26.2941 8.03498 28.9921L6.41998 36.5731V36.6871C6.41998 37.3521 6.95198 37.8841 7.61698 37.8841H7.76898L15.046 35.8321C17.516 37.0861 20.29 37.6941 23.064 37.5991C27.32 37.4471 31.291 35.6421 34.236 32.5451C37.2 29.4481 38.796 25.4011 38.758 21.1451C38.758 16.7371 36.991 12.6331 33.837 9.57406ZM23.007 35.3191C20.556 35.3951 18.105 34.8441 15.939 33.7231C15.882 33.6851 15.844 33.6661 15.806 33.6471L15.407 33.3811L9.07998 35.1671L10.41 28.9541V28.5551L10.296 28.3081C10.258 28.2321 10.22 28.1561 10.163 28.0801L10.106 27.9661L10.087 27.9471C8.85198 25.6291 8.28198 23.0261 8.45298 20.3851C8.88998 13.1651 14.932 7.38906 22.209 7.23706C25.99 7.16106 29.562 8.58606 32.279 11.2271C34.996 13.8681 36.497 17.4021 36.535 21.1831C36.592 28.6881 30.531 35.0341 23.007 35.3191Z" fill="white" stroke="white" stroke-width="1.2"/>
    <path d="M12.9365 20.9551C12.9365 21.4691 13.1407 21.962 13.5042 22.3255C13.8676 22.6889 14.3605 22.8931 14.8745 22.8931C15.3885 22.8931 15.8815 22.6889 16.2449 22.3255C16.6083 21.962 16.8125 21.4691 16.8125 20.9551C16.8125 20.4411 16.6083 19.9482 16.2449 19.5847C15.8815 19.2213 15.3885 19.0171 14.8745 19.0171C14.3605 19.0171 13.8676 19.2213 13.5042 19.5847C13.1407 19.9482 12.9365 20.4411 12.9365 20.9551Z" fill="white"/>
    <path d="M20.0615 20.9551C20.0615 21.4691 20.2657 21.962 20.6292 22.3255C20.9926 22.6889 21.4855 22.8931 21.9995 22.8931C22.5135 22.8931 23.0065 22.6889 23.3699 22.3255C23.7333 21.962 23.9375 21.4691 23.9375 20.9551C23.9375 20.4411 23.7333 19.9482 23.3699 19.5847C23.0065 19.2213 22.5135 19.0171 21.9995 19.0171C21.4855 19.0171 20.9926 19.2213 20.6292 19.5847C20.2657 19.9482 20.0615 20.4411 20.0615 20.9551Z" fill="white"/>
    <path d="M29.0294 22.7451C29.2645 22.8425 29.5165 22.8926 29.771 22.8926C30.0255 22.8926 30.2775 22.8425 30.5127 22.7451C30.7478 22.6477 30.9614 22.5049 31.1414 22.325C31.3213 22.145 31.4641 21.9314 31.5615 21.6962C31.6589 21.4611 31.709 21.2091 31.709 20.9546C31.709 20.7001 31.6589 20.4481 31.5615 20.213C31.4641 19.9778 31.3213 19.7642 31.1414 19.5842C30.9614 19.4043 30.7478 19.2615 30.5127 19.1641C30.2775 19.0667 30.0255 19.0166 29.771 19.0166C29.5165 19.0166 29.2645 19.0667 29.0294 19.1641C28.7942 19.2615 28.5806 19.4043 28.4006 19.5842C28.2207 19.7642 28.0779 19.9778 27.9805 20.213C27.8831 20.4481 27.833 20.7001 27.833 20.9546C27.833 21.2091 27.8831 21.4611 27.9805 21.6962C28.0779 21.9314 28.2207 22.145 28.4006 22.325C28.5806 22.5049 28.7942 22.6477 29.0294 22.7451Z" fill="white"/>
</svg>
