<svg width="18" height="18" viewBox="0 0 18 18" fill="none" xmlns="http://www.w3.org/2000/svg">
    <path d="M9 18C4.0377 18 0 13.963 0 9C0 4.03775 4.0377 0 9 0C13.963 0 18 4.03703 18 9C18 13.963 13.963 18 9 18ZM9 1.29143C4.74928 1.29143 1.29141 4.74927 1.29141 9.00002C1.29141 13.2501 4.74928 16.7086 8.99998 16.7086C13.2501 16.7086 16.7086 13.2507 16.7086 9.00002C16.7086 4.74927 13.2501 1.29143 8.99998 1.29143H9ZM8.03145 4.80287C8.03145 4.54927 8.13581 4.29725 8.31512 4.11801C8.49445 3.93871 8.74638 3.83425 8.99998 3.83425C9.25362 3.83425 9.50553 3.9387 9.68488 4.11801C9.86418 4.29725 9.96854 4.54927 9.96854 4.80287C9.96854 5.0564 9.86419 5.30842 9.68488 5.48777C9.50555 5.66706 9.25362 5.77143 8.99998 5.77143C8.74638 5.77143 8.49445 5.66708 8.31514 5.48777C8.13581 5.30842 8.03146 5.0564 8.03146 4.80287H8.03145ZM9 14.1658C8.64352 14.1658 8.35425 13.8771 8.35425 13.52V7.70861C8.35425 7.35212 8.64353 7.06284 8.99998 7.06284C9.35647 7.06284 9.64575 7.35212 9.64575 7.70861V13.52C9.64575 13.8771 9.35647 14.1658 8.99998 14.1658H9Z" fill="#E0473E"/>
</svg>
