<svg width="22" height="22" viewBox="0 0 22 22" fill="none" xmlns="http://www.w3.org/2000/svg">
    <path d="M16.5199 9.08229H7.99359C8.14011 7.84677 7.07663 2.82373 11.0045 2.70141C14.7392 2.55973 14.158 7.28489 14.158 7.28489L15.9871 7.29721C15.9871 7.29721 16.5186 0.972206 11.0045 0.941406C4.98663 1.24677 6.39859 8.10373 6.21511 9.08229C6.25779 9.08229 6.31323 9.08229 6.37175 9.08229C5.17099 9.08229 4.19727 10.0564 4.19727 11.2568V18.5053C4.19727 19.7061 5.17143 20.6798 6.37175 20.6798H16.5199C17.7207 20.6798 18.6944 19.7056 18.6944 18.5053V11.2568C18.6944 10.0564 17.7202 9.08229 16.5199 9.08229ZM12.1705 15.4051V17.056C12.1705 17.455 11.8449 17.7806 11.4458 17.7806C11.0467 17.7806 10.7211 17.455 10.7211 17.056V15.4051C10.2895 15.1538 9.99647 14.6914 9.99647 14.1564C9.99647 13.3556 10.6455 12.7066 11.4463 12.7066C12.2471 12.7066 12.8961 13.3556 12.8961 14.1564C12.8956 14.6914 12.6026 15.1538 12.1705 15.4051Z" fill="#E0473E"/>
</svg>
