<svg width="22" height="22" viewBox="0 0 22 22" fill="none" xmlns="http://www.w3.org/2000/svg">
    <path d="M16.1764 0H5.82341C5.10777 0 4.5293 0.614706 4.5293 1.37435V20.6256C4.5293 21.3853 5.10777 22 5.82341 22H16.1764C16.8907 22 17.4705 21.384 17.4705 20.6256V1.37435C17.4705 0.614706 16.8907 0 16.1764 0ZM10.9999 20.7059C10.8299 20.7059 10.6617 20.6724 10.5046 20.6074C10.3476 20.5423 10.205 20.447 10.0848 20.3268C9.96464 20.2067 9.86931 20.064 9.80428 19.907C9.73924 19.75 9.70577 19.5817 9.70577 19.4118C9.70577 19.2418 9.73924 19.0735 9.80428 18.9165C9.86931 18.7595 9.96464 18.6169 10.0848 18.4967C10.205 18.3765 10.3476 18.2812 10.5046 18.2162C10.6617 18.1511 10.8299 18.1176 10.9999 18.1176C11.3431 18.1176 11.6723 18.254 11.915 18.4967C12.1577 18.7394 12.294 19.0685 12.294 19.4118C12.294 19.755 12.1577 20.0842 11.915 20.3268C11.6723 20.5695 11.3431 20.7059 10.9999 20.7059ZM16.1764 16.8235H5.82341V2.58824H16.1764V16.8235Z" fill="#E0473E"/>
</svg>
