<svg width="24" height="24" viewBox="0 0 24 24" fill="none" xmlns="http://www.w3.org/2000/svg">
    <path d="M18.2731 22.3635H5.72763C4.64309 22.3621 3.60339 21.9306 2.83651 21.1637C2.06963 20.3968 1.63816 19.3571 1.63672 18.2726V5.72714C1.63816 4.64261 2.06963 3.60291 2.83651 2.83602C3.60339 2.06914 4.64309 1.63767 5.72763 1.63623H12.0004C12.2174 1.63623 12.4255 1.72243 12.5789 1.87587C12.7323 2.02931 12.8185 2.23742 12.8185 2.45441C12.8185 2.67141 12.7323 2.87952 12.5789 3.03295C12.4255 3.18639 12.2174 3.27259 12.0004 3.27259H5.72763C5.07708 3.27404 4.4536 3.5331 3.99359 3.99311C3.53359 4.45311 3.27452 5.0766 3.27308 5.72714V18.2726C3.27452 18.9231 3.53359 19.5466 3.99359 20.0066C4.4536 20.4666 5.07708 20.7257 5.72763 20.7271H18.2731C18.9236 20.7257 19.5471 20.4666 20.0071 20.0066C20.4671 19.5466 20.7262 18.9231 20.7276 18.2726V11.9999C20.7276 11.7829 20.8138 11.5748 20.9673 11.4213C21.1207 11.2679 21.3288 11.1817 21.5458 11.1817C21.7628 11.1817 21.9709 11.2679 22.1243 11.4213C22.2778 11.5748 22.364 11.7829 22.364 11.9999V18.2726C22.3625 19.3571 21.9311 20.3968 21.1642 21.1637C20.3973 21.9306 19.3576 22.3621 18.2731 22.3635Z" fill="#999999"/>
    <path d="M11.727 13.0909C11.5102 13.0901 11.3024 13.0039 11.1488 12.8509C11.0723 12.7753 11.0115 12.6853 10.97 12.586C10.9286 12.4868 10.9072 12.3803 10.9072 12.2727C10.9072 12.1651 10.9286 12.0586 10.97 11.9594C11.0115 11.8601 11.0723 11.7701 11.1488 11.6945L20.967 1.87633C21.1221 1.73181 21.3272 1.65313 21.5392 1.65687C21.7511 1.66061 21.9534 1.74647 22.1033 1.89638C22.2532 2.04628 22.3391 2.24852 22.3428 2.46049C22.3465 2.67245 22.2679 2.87759 22.1233 3.03269L12.3052 12.8509C12.1515 13.0039 11.9438 13.0901 11.727 13.0909Z" fill="#999999"/>
    <path d="M21.5451 3.27259H17.1815C16.9645 3.27259 16.7564 3.18639 16.6029 3.03295C16.4495 2.87952 16.3633 2.67141 16.3633 2.45441C16.3633 2.23742 16.4495 2.02931 16.6029 1.87587C16.7564 1.72243 16.9645 1.63623 17.1815 1.63623H21.5451C21.7621 1.63623 21.9702 1.72243 22.1236 1.87587C22.2771 2.02931 22.3633 2.23742 22.3633 2.45441C22.3633 2.67141 22.2771 2.87952 22.1236 3.03295C21.9702 3.18639 21.7621 3.27259 21.5451 3.27259Z" fill="#999999"/>
    <path d="M21.5457 7.63623C21.3287 7.63623 21.1206 7.55003 20.9672 7.39659C20.8137 7.24315 20.7275 7.03504 20.7275 6.81805V2.45441C20.7275 2.23742 20.8137 2.02931 20.9672 1.87587C21.1206 1.72243 21.3287 1.63623 21.5457 1.63623C21.7627 1.63623 21.9708 1.72243 22.1243 1.87587C22.2777 2.02931 22.3639 2.23742 22.3639 2.45441V6.81805C22.3639 7.03504 22.2777 7.24315 22.1243 7.39659C21.9708 7.55003 21.7627 7.63623 21.5457 7.63623Z" fill="#999999"/>
</svg>
