<svg width="44" height="44" viewBox="0 0 44 44" fill="none" xmlns="http://www.w3.org/2000/svg">
    <path d="M43.103 15.0077L23.2286 5.16761C23.0061 5.05736 22.761 5 22.5127 5C22.2643 5 22.0193 5.05736 21.7967 5.16761L1.92449 15.0077C1.65262 15.1422 1.42425 15.3507 1.26559 15.6093C1.10694 15.8678 1.02444 16.1658 1.02759 16.469C1.03073 16.7723 1.11938 17.0685 1.28336 17.3237C1.44734 17.5789 1.67999 17.7826 1.95459 17.9115L9.69881 21.544V33.0972C9.69881 33.6152 9.94821 34.1031 10.3696 34.404C13.5946 36.7232 17.9053 38 22.5127 38C27.1222 38 31.4329 36.7232 34.6557 34.404C34.863 34.2548 35.0318 34.0585 35.1484 33.8313C35.265 33.6041 35.3261 33.3525 35.3265 33.0972V21.544L43.0729 17.9115C43.3475 17.7826 43.5802 17.5789 43.7441 17.3237C43.9081 17.0685 43.9968 16.7723 43.9999 16.469C44.0031 16.1658 43.9206 15.8678 43.7619 15.6093C43.6033 15.3507 43.3749 15.1422 43.103 15.0077ZM32.1016 32.2396C29.5195 33.8602 26.0752 34.778 22.5127 34.778C18.9502 34.778 15.508 33.8602 12.9238 32.2396V23.0594L21.8268 27.2357C22.0411 27.3377 22.2754 27.3906 22.5127 27.3906C22.75 27.3906 22.9843 27.3377 23.1985 27.2357L32.1016 23.0594V32.2396ZM22.5127 23.9965L6.35129 16.4134L22.5127 8.41109L38.6762 16.4134L22.5127 23.9965ZM4.22497 21.7998V30.8661C4.22483 31.0778 4.18298 31.2874 4.10181 31.4829C4.02065 31.6784 3.90175 31.8561 3.75192 32.0057C3.60209 32.1553 3.42425 32.2739 3.22856 32.3548C3.03287 32.4356 2.82316 32.4772 2.61141 32.4771C2.39965 32.4769 2.19 32.4351 1.99442 32.3539C1.79884 32.2728 1.62116 32.1539 1.47153 32.0041C1.32189 31.8544 1.20324 31.6766 1.12233 31.4809C1.04143 31.2853 0.999859 31.0756 1 30.8639V21.7977C1.00029 21.3701 1.17045 20.9602 1.47305 20.6581C1.77565 20.356 2.1859 20.1864 2.61356 20.1867C3.04122 20.187 3.45124 20.3571 3.75344 20.6596C4.05564 20.9621 4.22525 21.3723 4.22497 21.7998Z" fill="white"/>
</svg>
