<svg width="174" height="58" viewBox="0 0 174 58" fill="none" xmlns="http://www.w3.org/2000/svg">
    <g filter="url(#filter0_d)">
        <rect x="2" y="2" width="148" height="50" rx="4" fill="#F7F9FA"/>
        <path d="M29.232 33H34.86V31.936H32.802V22.738H31.822C31.262 23.06 30.604 23.298 29.694 23.466V24.278H31.514V31.936H29.232V33ZM39.6716 33.182C41.6036 33.182 42.8916 32.02 42.8916 30.522C42.8916 29.122 42.0516 28.352 41.1556 27.834V27.764C41.7716 27.288 42.5276 26.364 42.5276 25.286C42.5276 23.704 41.4636 22.584 39.7136 22.584C38.1036 22.584 36.8996 23.62 36.8996 25.188C36.8996 26.266 37.5296 27.036 38.2856 27.554V27.624C37.3476 28.128 36.3956 29.08 36.3956 30.452C36.3956 32.034 37.7816 33.182 39.6716 33.182ZM40.3716 27.428C39.1676 26.952 38.0616 26.42 38.0616 25.188C38.0616 24.194 38.7476 23.522 39.6856 23.522C40.7916 23.522 41.4356 24.348 41.4356 25.356C41.4356 26.112 41.0716 26.812 40.3716 27.428ZM39.6996 32.23C38.4676 32.23 37.5576 31.432 37.5576 30.34C37.5576 29.36 38.1316 28.548 38.9576 28.016C40.4136 28.604 41.6736 29.122 41.6736 30.494C41.6736 31.516 40.8756 32.23 39.6996 32.23ZM47.7453 32.188C46.4573 32.188 45.6873 31.026 45.5333 28.898C46.2053 27.946 46.9893 27.582 47.6333 27.582C48.8793 27.582 49.4813 28.464 49.4813 29.85C49.4813 31.25 48.7253 32.188 47.7453 32.188ZM50.5033 23.592C49.9433 22.99 49.1733 22.542 48.1093 22.542C46.1213 22.542 44.3153 24.082 44.3153 28.1C44.3153 31.488 45.7713 33.182 47.7453 33.182C49.3413 33.182 50.6853 31.838 50.6853 29.85C50.6853 27.708 49.5793 26.63 47.8433 26.63C47.0312 26.63 46.1353 27.106 45.5053 27.876C45.5613 24.684 46.7513 23.606 48.1513 23.606C48.7813 23.606 49.3973 23.9 49.8033 24.39L50.5033 23.592ZM51.9409 29.57H55.5249V28.59H51.9409V29.57ZM57.3824 33H63.0104V31.936H60.9524V22.738H59.9724C59.4124 23.06 58.7544 23.298 57.8444 23.466V24.278H59.6644V31.936H57.3824V33ZM64.532 33H70.986V31.894H68.144C67.626 31.894 66.996 31.95 66.464 31.992C68.872 29.71 70.482 27.624 70.482 25.58C70.482 23.746 69.334 22.542 67.5 22.542C66.198 22.542 65.316 23.144 64.476 24.054L65.218 24.782C65.778 24.11 66.506 23.592 67.346 23.592C68.62 23.592 69.236 24.446 69.236 25.622C69.236 27.386 67.752 29.43 64.532 32.244V33ZM72.2976 33H78.7516V31.894H75.9096C75.3916 31.894 74.7616 31.95 74.2296 31.992C76.6376 29.71 78.2476 27.624 78.2476 25.58C78.2476 23.746 77.0996 22.542 75.2656 22.542C73.9636 22.542 73.0816 23.144 72.2416 24.054L72.9836 24.782C73.5436 24.11 74.2716 23.592 75.1116 23.592C76.3856 23.592 77.0016 24.446 77.0016 25.622C77.0016 27.386 75.5176 29.43 72.2976 32.244V33ZM80.6793 33H86.3073V31.936H84.2493V22.738H83.2693C82.7093 23.06 82.0513 23.298 81.1413 23.466V24.278H82.9613V31.936H80.6793V33ZM87.8569 29.57H91.4409V28.59H87.8569V29.57ZM95.7624 33.182C97.5824 33.182 99.0524 32.09 99.0524 30.256C99.0524 28.856 98.0864 27.932 96.8684 27.652V27.596C97.9604 27.19 98.7024 26.364 98.7024 25.118C98.7024 23.466 97.4424 22.542 95.7204 22.542C94.5304 22.542 93.6204 23.06 92.8504 23.774L93.5364 24.586C94.1104 24.012 94.8384 23.592 95.6644 23.564C96.7284 23.592 97.4004 24.222 97.4004 25.216C97.4004 26.322 96.6724 27.176 94.5584 27.176V28.156C96.9244 28.156 97.7504 28.982 97.7504 30.214C97.7504 31.39 96.8824 32.118 95.6644 32.118C94.5024 32.118 93.7184 31.572 93.1164 30.942L92.4724 31.782C93.1444 32.51 94.1524 33.182 95.7624 33.182ZM103.486 28.156C102.268 28.156 101.652 27.26 101.652 25.874C101.652 24.474 102.408 23.55 103.388 23.55C104.704 23.55 105.488 24.67 105.628 26.784C104.942 27.764 104.172 28.156 103.486 28.156ZM100.644 32.132C101.218 32.734 102.002 33.182 103.108 33.182C105.04 33.182 106.832 31.586 106.832 27.428C106.832 24.166 105.362 22.542 103.388 22.542C101.792 22.542 100.448 23.886 100.448 25.874C100.448 28.002 101.568 29.108 103.276 29.108C104.144 29.108 105.026 28.604 105.642 27.834C105.544 31.026 104.396 32.118 103.066 32.118C102.408 32.118 101.778 31.824 101.344 31.334L100.644 32.132ZM111.252 33.182C112.988 33.182 114.612 31.908 114.612 29.654C114.612 27.4 113.226 26.392 111.518 26.392C110.902 26.392 110.44 26.546 109.992 26.798L110.244 23.83H114.122V22.738H109.124L108.802 27.54L109.488 27.96C110.076 27.568 110.51 27.358 111.196 27.358C112.484 27.358 113.324 28.226 113.324 29.696C113.324 31.194 112.344 32.118 111.14 32.118C109.95 32.118 109.208 31.572 108.62 30.984L107.99 31.824C108.676 32.51 109.656 33.182 111.252 33.182ZM119.577 32.188C118.289 32.188 117.519 31.026 117.365 28.898C118.037 27.946 118.821 27.582 119.465 27.582C120.711 27.582 121.313 28.464 121.313 29.85C121.313 31.25 120.557 32.188 119.577 32.188ZM122.335 23.592C121.775 22.99 121.005 22.542 119.941 22.542C117.953 22.542 116.147 24.082 116.147 28.1C116.147 31.488 117.603 33.182 119.577 33.182C121.173 33.182 122.517 31.838 122.517 29.85C122.517 27.708 121.411 26.63 119.675 26.63C118.863 26.63 117.967 27.106 117.337 27.876C117.393 24.684 118.583 23.606 119.983 23.606C120.613 23.606 121.229 23.9 121.635 24.39L122.335 23.592Z" fill="#333333"/>
        <path d="M168 26.7551L148.5 37.8013L148.5 15.7089L168 26.7551Z" fill="#F7F9FA"/>
    </g>
    <defs>
        <filter id="filter0_d" x="0" y="0" width="174" height="58" filterUnits="userSpaceOnUse" color-interpolation-filters="sRGB">
            <feFlood flood-opacity="0" result="BackgroundImageFix"/>
            <feColorMatrix in="SourceAlpha" type="matrix" values="0 0 0 0 0 0 0 0 0 0 0 0 0 0 0 0 0 0 127 0"/>
            <feOffset dx="2" dy="2"/>
            <feGaussianBlur stdDeviation="2"/>
            <feColorMatrix type="matrix" values="0 0 0 0 0.4 0 0 0 0 0.4 0 0 0 0 0.4 0 0 0 0.15 0"/>
            <feBlend mode="normal" in2="BackgroundImageFix" result="effect1_dropShadow"/>
            <feBlend mode="normal" in="SourceGraphic" in2="effect1_dropShadow" result="shape"/>
        </filter>
    </defs>
</svg>
