<svg width="34" height="34" viewBox="0 0 34 34" fill="none" xmlns="http://www.w3.org/2000/svg">
    <path d="M27.5354 20.1742L18.1974 7.77283C17.7681 7.13632 16.8357 7.12172 16.3772 7.74328L6.55073 20.1446C6.01782 20.8844 6.53579 21.9207 7.45352 21.9207H12.0707V27.6774C12.0707 28.5507 12.781 29.2758 13.6691 29.2758H20.3433C21.2162 29.2758 21.9414 28.5656 21.9414 27.6774V21.9207H26.6031C27.5059 21.9207 28.0388 20.9143 27.5354 20.1742Z" fill="#333333"/>
    <path d="M7.52824 7.24008H26.4706C27.1662 7.24008 27.7287 6.67762 27.7287 5.98234C27.7287 5.28707 27.1662 4.72461 26.4706 4.72461H7.52824C6.83264 4.72461 6.27051 5.28707 6.27051 5.98234C6.27051 6.67762 6.83297 7.24008 7.52824 7.24008Z" fill="#333333"/>
</svg>
