<svg width="32" height="32" viewBox="0 0 32 32" fill="none" xmlns="http://www.w3.org/2000/svg">
    <path d="M21.66 10.8523C22.028 10.8523 22.39 10.8803 22.754 10.9203C21.774 6.35631 16.896 2.96631 11.326 2.96631C5.1 2.96631 0 7.20831 0 12.5983C0 15.7083 1.696 18.2623 4.532 20.2463L3.4 23.6523L7.36 21.6683C8.776 21.9463 9.912 22.2343 11.326 22.2343C11.682 22.2343 12.034 22.2183 12.382 22.1923C12.162 21.4343 12.032 20.6423 12.032 19.8163C12.034 14.8683 16.282 10.8523 21.66 10.8523ZM15.572 7.78231C16.428 7.78231 16.99 8.34431 16.99 9.19631C16.99 10.0443 16.428 10.6123 15.572 10.6123C14.726 10.6123 13.874 10.0443 13.874 9.19631C13.874 8.34231 14.724 7.78231 15.572 7.78231ZM7.646 10.6123C6.796 10.6123 5.94 10.0443 5.94 9.19631C5.94 8.34431 6.796 7.78231 7.646 7.78231C8.496 7.78231 9.06 8.34231 9.06 9.19631C9.06 10.0443 8.496 10.6123 7.646 10.6123ZM32 19.6803C32 15.1523 27.468 11.4623 22.378 11.4623C16.988 11.4623 12.746 15.1543 12.746 19.6803C12.746 24.2203 16.99 27.8983 22.378 27.8983C23.506 27.8983 24.644 27.6163 25.776 27.3323L28.882 29.0363L28.03 26.2043C30.304 24.4963 32 22.2343 32 19.6803ZM19.254 18.2623C18.692 18.2623 18.122 17.7023 18.122 17.1303C18.122 16.5663 18.692 15.9983 19.254 15.9983C20.114 15.9983 20.672 16.5663 20.672 17.1303C20.672 17.7023 20.114 18.2623 19.254 18.2623ZM25.484 18.2623C24.926 18.2623 24.358 17.7023 24.358 17.1303C24.358 16.5663 24.924 15.9983 25.484 15.9983C26.336 15.9983 26.902 16.5663 26.902 17.1303C26.902 17.7023 26.336 18.2623 25.484 18.2623Z" fill="#31C669"/>
</svg>
