<svg width="44" height="44" viewBox="0 0 44 44" fill="none" xmlns="http://www.w3.org/2000/svg">
    <path d="M19.492 21.9792C19.9305 21.9792 20.3691 22.3863 20.3691 22.8878C20.3691 23.295 19.9306 23.702 19.492 23.702C18.8339 23.702 18.3641 23.2949 18.3641 22.8878C18.3641 22.3865 18.8339 21.9792 19.492 21.9792ZM22.3739 17.7499C21.6847 17.7499 21.2462 17.3114 21.2462 16.6533C21.2462 15.9642 21.6847 15.5569 22.3739 15.5569C23.0319 15.5569 23.6585 15.9642 23.6585 16.6533C23.6585 17.3116 23.0319 17.7499 22.3739 17.7499ZM22.0294 2.7666C32.6489 2.7666 41.2578 11.3754 41.2578 21.9948C41.2578 32.6144 32.6489 41.2232 22.0294 41.2232C11.4099 41.2232 2.80119 32.6144 2.80119 21.9948C2.80119 11.3753 11.4098 2.7666 22.0294 2.7666ZM25.6635 26.8666C26.8227 26.8666 27.6686 26.6786 28.7652 26.365L31.9293 27.963L31.0205 25.2687C33.2449 23.7026 34.5607 21.7288 34.5607 19.3163C34.5607 15.0557 30.5507 11.7977 25.6635 11.7977C21.3403 11.7977 17.4866 14.3665 16.7348 18.0009C17.0482 17.9378 17.3302 17.9067 17.5807 17.9067C21.8414 17.9067 25.1306 21.1022 25.1306 24.9555C25.1306 25.6134 25.0367 26.2086 24.8801 26.8354C25.1307 26.8666 25.4129 26.8666 25.6635 26.8666ZM12.5995 29.9366L11.9731 32.1923L14.354 30.8453C15.2624 31.0331 16.1397 31.3151 17.0482 31.3151C21.2462 31.3151 24.567 28.433 24.567 24.8616C24.567 21.2901 21.2462 18.408 17.0482 18.408C13.0694 18.408 9.49805 21.2902 9.49805 24.8616C9.49805 26.8666 10.8451 28.6521 12.5995 29.9366ZM28.577 15.5569C29.235 15.5569 29.9241 15.9642 29.9241 16.6533C29.9241 17.3114 29.235 17.7501 28.577 17.7501C27.9504 17.7501 27.4493 17.3114 27.4493 16.6533C27.4493 15.9642 27.9504 15.5569 28.577 15.5569ZM14.5733 21.9792C15.0432 21.9792 15.4505 22.3863 15.4505 22.8878C15.4505 23.295 15.0432 23.702 14.5733 23.702C13.9468 23.702 13.4768 23.2949 13.4768 22.8878C13.4768 22.3865 13.9468 21.9792 14.5733 21.9792Z" fill="#31C669"/>
</svg>
