<svg width="44" height="44" viewBox="0 0 44 44" fill="none" xmlns="http://www.w3.org/2000/svg">
    <path d="M40.9402 23.7003C40.7191 23.7006 40.5052 23.62 40.337 23.4731L22.2942 7.77081L4.25049 23.4721C4.06219 23.636 3.818 23.7167 3.57163 23.6963C3.32527 23.6759 3.09692 23.5561 2.93681 23.3633C2.7767 23.1705 2.69795 22.9205 2.71788 22.6683C2.73781 22.4161 2.8548 22.1823 3.0431 22.0184L21.69 5.79108C21.8586 5.64446 22.0726 5.56396 22.2937 5.56396C22.5149 5.56396 22.7289 5.64446 22.8974 5.79108L41.5444 22.0184C41.6903 22.1447 41.7948 22.3139 41.8436 22.503C41.8925 22.6922 41.8833 22.8922 41.8173 23.0758C41.7513 23.2595 41.6318 23.4179 41.4749 23.5296C41.318 23.6413 41.1313 23.7009 40.9402 23.7003Z" fill="white" stroke="white" stroke-width="1.6"/>
    <path d="M35.3476 38.9731H9.24192C8.99464 38.9731 8.7575 38.8726 8.58265 38.6936C8.4078 38.5145 8.30957 38.2717 8.30957 38.0186V17.5913H10.1743V37.064H34.4153V17.5913H36.28V38.0186C36.28 38.1439 36.2558 38.2681 36.209 38.3839C36.1621 38.4997 36.0935 38.6049 36.0069 38.6936C35.9203 38.7822 35.8175 38.8525 35.7044 38.9005C35.5913 38.9484 35.4701 38.9731 35.3476 38.9731Z" fill="white" stroke="white" stroke-width="1.5"/>
    <path d="M27.3762 24.1298H17.2136C16.9663 24.1298 16.7292 24.0292 16.5543 23.8502C16.3795 23.6712 16.2813 23.4284 16.2812 23.1753C16.2813 22.9221 16.3795 22.6793 16.5543 22.5003C16.7292 22.3213 16.9663 22.2207 17.2136 22.2207H27.3762C27.6234 22.2207 27.8606 22.3213 28.0354 22.5003C28.2103 22.6793 28.3085 22.9221 28.3085 23.1753C28.3085 23.4284 28.2103 23.6712 28.0354 23.8502C27.8606 24.0292 27.6234 24.1298 27.3762 24.1298Z" fill="white"/>
    <path d="M22.0446 23.8737C21.9222 23.8738 21.8009 23.8492 21.6878 23.8012C21.5747 23.7532 21.4719 23.6828 21.3855 23.594L18.1549 20.2865C17.9801 20.1075 17.8818 19.8648 17.8818 19.6116C17.8818 19.3585 17.9801 19.1157 18.1549 18.9368C18.3297 18.7578 18.5668 18.6572 18.814 18.6572C19.0613 18.6572 19.2984 18.7578 19.4732 18.9368L22.7038 22.2443C22.8346 22.3776 22.9238 22.5477 22.96 22.733C22.9962 22.9183 22.9778 23.1104 22.9072 23.285C22.8366 23.4596 22.7169 23.6087 22.5633 23.7135C22.4097 23.8184 22.2292 23.8741 22.0446 23.8737Z" fill="white"/>
    <path d="M22.5438 23.8737C22.3593 23.8741 22.1787 23.8184 22.0251 23.7135C21.8716 23.6087 21.7519 23.4596 21.6812 23.285C21.6106 23.1104 21.5922 22.9183 21.6285 22.733C21.6647 22.5477 21.7538 22.3776 21.8847 22.2443L25.1152 18.9368C25.2901 18.7578 25.5272 18.6572 25.7744 18.6572C26.0216 18.6572 26.2587 18.7578 26.4336 18.9368C26.6084 19.1157 26.7066 19.3585 26.7066 19.6116C26.7066 19.8648 26.6084 20.1075 26.4336 20.2865L23.203 23.594C23.1165 23.6828 23.0138 23.7532 22.9007 23.8012C22.7875 23.8492 22.6663 23.8738 22.5438 23.8737ZM27.3762 28.9022H17.2136C16.9663 28.9022 16.7292 28.8016 16.5543 28.6226C16.3795 28.4436 16.2812 28.2008 16.2812 27.9477C16.2812 27.6945 16.3795 27.4517 16.5543 27.2727C16.7292 27.0937 16.9663 26.9931 17.2136 26.9931H27.3762C27.6234 26.9931 27.8606 27.0937 28.0354 27.2727C28.2103 27.4517 28.3085 27.6945 28.3085 27.9477C28.3085 28.2008 28.2103 28.4436 28.0354 28.6226C27.8606 28.8016 27.6234 28.9022 27.3762 28.9022Z" fill="white"/>
    <path d="M22.4885 32.9247C22.3538 32.9247 22.2204 32.9047 22.096 32.8658C21.9716 32.827 21.8585 32.77 21.7633 32.6982C21.668 32.6264 21.5925 32.5412 21.541 32.4474C21.4894 32.3535 21.4629 32.253 21.4629 32.1514V23.723C21.4629 23.5179 21.5709 23.3212 21.7633 23.1762C21.9556 23.0312 22.2165 22.9497 22.4885 22.9497C22.7605 22.9497 23.0213 23.0312 23.2137 23.1762C23.406 23.3212 23.5141 23.5179 23.5141 23.723V32.1514C23.5141 32.3565 23.406 32.5532 23.2137 32.6982C23.0213 32.8432 22.7605 32.9247 22.4885 32.9247Z" fill="white"/>
</svg>
